<svg xmlns="http://www.w3.org/2000/svg" viewBox="0 0 4680 3120"><g data-name="4"><rect width="4680" height="3120" fill="#fff" data-name="4" opacity="0"/><ellipse cx="3960.89" cy="2234.12" fill="#efefef" rx="241.55" ry="42.4"/><path fill="#f5f5f7" d="M3385.77,2181.86s353-409.82,262.33-934S3089.71,449.27,2776,480.3,2150,819.42,1843.33,857.42s-768.64,309-675.27,824.45,377.27,565.75,836.71,584.87S3114.37,2521.74,3385.77,2181.86Z"/><path fill="#99b1da" d="M3684.82,2001.43c13.92,7.82,6.72,14.31-16.29,14.31h-2294c-24.21,0-31.74-6.68-17.12-14.68L1482,1932.63c11.42-6.27,37.29-11.21,58-11.21l1970.36,2c19.89,0,44.66,4.92,55.56,11.09Z"/><path d="M2169.76,743.13s-15.19-62.24-84.92-25.07-.57,67-69.18,123.36,24.4,50.92-5.06,103.93c-49.77,89.56,71.71,124.21,71.71,124.21l5.9-1.69s8.16-9.3,26.15-9.3,67.21,31,67.21-41.12S2169.76,743.13,2169.76,743.13Z"/><path d="M2164.13,753.27a58.8,58.8,0,0,0-7.4-15.27,60,60,0,0,0-5.25-6.61,48,48,0,0,0-6.27-5.58,41.42,41.42,0,0,0-15-6.88,47.21,47.21,0,0,0-16.51-.7,80.67,80.67,0,0,0-16.2,4c-2.6,1-5.23,1.95-7.76,3.18-1.27.59-2.56,1.12-3.81,1.76l-3.73,2-1.87,1-1.82,1.06-3.63,2.12c-1.21.7-2.34,1.52-3.52,2.27s-2.35,1.5-3.44,2.36l-3.33,2.48-3.13,2.69-.77.68-.72.73-1.44,1.45a33.3,33.3,0,0,0-2.68,3,36.37,36.37,0,0,0-7.2,14.1,68.36,68.36,0,0,0-1.53,16.27c0,5.63.16,11.43-.32,17.32a67.13,67.13,0,0,1-3.62,17.45,71.91,71.91,0,0,1-8.15,15.87l-2.57,3.63-2.79,3.42c-.47.56-.92,1.15-1.41,1.7l-1.49,1.61-3,3.23-3.15,3c-1.07,1-2.08,2.07-3.2,3l-3.29,2.85c-1.1,1-2.21,1.91-3.27,2.8a135.76,135.76,0,0,0-12.18,11.38c-3.71,4-7.13,8.33-9.24,13a19.28,19.28,0,0,0-1.85,7,13.25,13.25,0,0,0,.25,3.44,15.12,15.12,0,0,0,1.06,3.37c1.95,4.47,5.73,8.53,9.58,12.66s8,8.46,11.16,13.82a33.41,33.41,0,0,1,3.66,8.71,30.48,30.48,0,0,1,.79,9.5,44.58,44.58,0,0,1-5.54,17.41l-2,3.77-1,1.83-.92,1.87-.91,1.87c-.3.62-.56,1.26-.85,1.89-.56,1.26-1.12,2.53-1.59,3.82a80,80,0,0,0-4.49,15.82,63.11,63.11,0,0,0-.69,16.29,56.2,56.2,0,0,0,1.34,8c.28,1.34.7,2.63,1.07,3.94.21.66.45,1.29.66,1.94s.45,1.29.72,1.92c4,10.21,10.83,19.23,18.88,26.92a136.49,136.49,0,0,0,27.26,19.69,181.81,181.81,0,0,0,30.94,13.78h-.49l5.94-1.55-.36.23a25.72,25.72,0,0,1,5.94-4.28,36.69,36.69,0,0,1,6.65-2.75,43.39,43.39,0,0,1,7-1.44c1.18-.18,2.38-.19,3.56-.3s2.37,0,3.56,0c-1.19.08-2.37.12-3.55.23s-2.35.25-3.51.5a43,43,0,0,0-6.82,1.79,39,39,0,0,0-6.32,3,25.16,25.16,0,0,0-5.39,4.25l-.14.16-.22.07-5.86,1.83-.23.07-.26-.07a155.41,155.41,0,0,1-16.28-5.59q-8-3.2-15.67-7.14a136.42,136.42,0,0,1-28.64-19.35,91,91,0,0,1-11.88-12.84,71.65,71.65,0,0,1-8.84-15.28c-.3-.68-.57-1.37-.82-2.07s-.53-1.39-.76-2.09c-.44-1.42-.93-2.82-1.27-4.27a60.52,60.52,0,0,1-1.65-8.77,66.08,66.08,0,0,1,.41-17.77,86.13,86.13,0,0,1,4.59-17.06c.5-1.38,1.07-2.73,1.65-4.08.29-.67.56-1.35.87-2l.93-2,.94-2,1-1.94,2-3.78c2.47-4.8,4.33-9.9,4.63-15a24.46,24.46,0,0,0-.66-7.45,26.86,26.86,0,0,0-3-7c-2.65-4.48-6.46-8.48-10.37-12.62-2-2.09-4-4.21-5.85-6.57a35.39,35.39,0,0,1-5-7.94,21.51,21.51,0,0,1-1.52-4.76,19.91,19.91,0,0,1-.38-5,25.35,25.35,0,0,1,2.41-9.45,44.87,44.87,0,0,1,4.76-7.91,74.74,74.74,0,0,1,5.76-6.83,141.92,141.92,0,0,1,12.82-11.89c1.13-.93,2.18-1.84,3.24-2.75l3.18-2.72c1.08-.89,2-1.89,3-2.84l3-2.88,2.83-3,1.42-1.51c.46-.52.88-1.06,1.32-1.58l2.62-3.19,2.4-3.33a64.55,64.55,0,0,0,7.62-14.34,60.69,60.69,0,0,0,3.5-15.86c.52-5.48.45-11.09.52-16.84a70.86,70.86,0,0,1,2-17.63,41.67,41.67,0,0,1,8.54-15.92,36.55,36.55,0,0,1,3-3.29l1.6-1.56.8-.77.85-.71,3.41-2.81,3.58-2.55c1.17-.88,2.42-1.61,3.66-2.38s2.45-1.56,3.73-2.25l3.81-2.08,1.9-1,2-.95,3.9-1.88c1.31-.63,2.66-1.14,4-1.71,2.64-1.19,5.41-2.08,8.15-3.06a79.78,79.78,0,0,1,17.06-3.57,50,50,0,0,1,17.43,1.42,42.09,42.09,0,0,1,15.51,7.89,49.41,49.41,0,0,1,6.21,6.06,57.55,57.55,0,0,1,5,7A59.44,59.44,0,0,1,2164.13,753.27Z"/><polygon fill="#7a97c1" points="4226.28 1271.83 2273.42 1281.29 2317.58 2045.25 2890.53 2045.25 2890.53 1496.78 4149.16 1496.78 4149.16 2140.78 4106.08 2149.05 4106.08 2161.14 4193.32 2153.63 4193.32 1496.78 4226.28 1496.78 4226.28 1271.83"/><polygon fill="#2f4171" points="4093.81 2151.61 4049.65 2151.61 4049.65 1325.51 2317.58 1325.51 2317.58 2142.01 2273.42 2142.01 2273.42 1281.29 4093.81 1281.29 4093.81 2151.61"/><rect width="1954.43" height="43.61" x="2205.62" y="1244.72" fill="#d1dbed"/><rect width="572.95" height="749.33" x="2317.58" y="1295.91" fill="#99b1da"/><rect width="572.95" height="15.17" x="2317.58" y="1288.33" fill="#5681bf"/><rect width="574.5" height="15.17" x="2316.03" y="1481.61" fill="#5681bf"/><rect width="574.5" height="15.16" x="2316.8" y="1906.57" fill="#858585"/><rect width="574.5" height="15.16" x="2316.8" y="1708.88" fill="#858585"/><rect width="478.37" height="363.33" x="3273.23" y="848.22" fill="#3d5891"/><path fill="#2f4171" d="M3240.11,815V1244.7h544.6V815Zm478.37,363.32H3306.34v-297h412.14Z"/><rect width="652.62" height="22.49" x="3183.61" y="1222.23" fill="#434343"/><polygon fill="#243354" points="3836.23 1222.23 3183.61 1222.23 3183.61 1244.72 3836.23 1244.72 3836.23 1222.23 3836.23 1222.23"/><rect width="390.05" height="255.54" x="3316.15" y="907.72" fill="#fff"/><rect width="180.31" height="7.37" x="3404.47" y="937.2" fill="#99b1da"/><rect width="192.57" height="7.37" x="3332.1" y="978.97" fill="#99b1da"/><rect width="192.57" height="7.37" x="3332.1" y="993.1" fill="#99b1da"/><rect width="260.34" height="7.37" x="3332.1" y="1005.09" fill="#99b1da"/><rect width="260.34" height="7.37" x="3332.1" y="1017.09" fill="#99b1da"/><rect width="260.34" height="7.37" x="3332.1" y="1046.57" fill="#99b1da"/><rect width="102.57" height="7.37" x="3332.1" y="1031.83" fill="#99b1da"/><rect width="102.57" height="7.37" x="3332.1" y="1061.31" fill="#99b1da"/><rect width="268.03" height="16.2" x="2463.68" y="1340.17" fill="#5681bf"/><rect width="268.03" height="16.2" x="2463.68" y="1530.63" fill="#5681bf"/><rect width="268.03" height="16.2" x="2463.68" y="1747.82" fill="#858585"/><rect width="268.03" height="16.2" x="2463.68" y="1940.93" fill="#858585"/><polygon fill="#fff" points="3274.55 815.04 3240.11 856.54 3240.11 816.88 3241.65 815.04 3274.55 815.04" opacity=".31"/><polygon fill="#fff" points="3308.18 815.04 3240.11 897.08 3240.11 871.73 3287.13 815.04 3308.18 815.04" opacity=".31"/><polygon fill="#fff" points="3371.18 815.04 3316.2 881.38 3306.34 893.25 3240.11 973.08 3240.11 911.45 3320.11 815.04 3371.18 815.04" opacity=".31"/><rect width="73.59" height="12.94" x="2261.3" y="2140.68"/><polygon fill="#fff" points="3769.7 815.04 3714.64 881.38 3690.29 881.38 3745.26 815.04 3769.7 815.04" opacity=".31"/><polygon fill="#fff" points="3784.71 815.04 3784.71 873.34 3718.48 953.18 3718.48 891.63 3781.99 815.04 3784.71 815.04" opacity=".31"/><rect width="39.59" height="290.98" x="3960.24" y="1810.06" fill="#f19a6d"/><polygon fill="#fff" points="3999.84 1910.42 3999.84 1956.49 3960.24 2025.19 3960.24 1979.05 3999.84 1910.42" opacity=".38"/><polygon fill="#fff" points="3999.84 1964.82 3999.84 1987.89 3960.24 2056.59 3960.24 2033.44 3999.84 1964.82" opacity=".38"/><polygon fill="#fff" points="3999.84 1992.23 3999.84 2015.24 3960.24 2083.94 3960.24 2060.94 3999.84 1992.23" opacity=".38"/><path fill="#ef7c59" d="M4153.68,2186.06a24.73,24.73,0,0,1,16.57,1.31v-24.75c0-5.09,3.61-9.21,8.07-9.21h0c4.45,0,8.06,4.12,8.06,9.21v43.09a36.34,36.34,0,0,1,1.25,19c-2.61,13.21-12.47,23.34-24.25,24.83-18.08,2.32-33.22-14.91-31.32-35.54C4133.31,2200.47,4142.12,2189.13,4153.68,2186.06Z"/><path fill="#f3ce90" d="M4160.12,2244.38c13,0,23.54-12.08,23.54-26.91s-10.56-26.92-23.54-26.92-23.54,12.08-23.54,26.92S4147.14,2244.38,4160.12,2244.38Z"/><path fill="#d36950" d="M4188.21,2214.37c-.07-.88-.18-1.72-.33-2.58a1.19,1.19,0,0,0,0-.33,3.63,3.63,0,0,0-.07-.51c-.18-.83-.36-1.67-.55-2.46s-.5-1.88-.83-2.79v0c-2.89-8.41-8.79-15.1-16.16-18.33a19,19,0,0,0-2.42-.9c-.79-.25-1.59-.47-2.42-.65a.5.5,0,0,0-.18,0,1.21,1.21,0,0,0-.36-.07,14.8,14.8,0,0,0-1.85-.29,2.11,2.11,0,0,0-.5,0c-.15,0-.26-.05-.41-.05-.64-.06-1.3-.1-2-.1a20.43,20.43,0,0,0-3,.22h-.18a11,11,0,0,0-1.59.26,24.19,24.19,0,0,0-3.76,1c-.61.21-1.19.46-1.77.72a7.88,7.88,0,0,0-1.23.62,11.45,11.45,0,0,0-1.05.53c-.68.4-1.37.81-2,1.27s-1,.76-1.52,1.12a34.12,34.12,0,0,0-2.86,2.65c-.32.33-.64.69-.94,1s-.79.91-1.15,1.37c-.47.62-.94,1.26-1.38,1.93a21.11,21.11,0,0,0-1.23,2c-.39.69-.76,1.39-1.12,2.1v0c-.32.74-.65,1.46-.93,2.22s-.51,1.37-.76,2.06-.41,1.34-.59,2l-.21,1a.39.39,0,0,0,0,.21c-.14.62-.25,1.24-.36,1.85-.14.83-.25,1.67-.32,2.5-.11,1.15-.19,2.32-.19,3.51a36,36,0,0,0,1.05,8.66c.11.5.25,1,.4,1.52a32.88,32.88,0,0,0,1.34,3.8,21,21,0,0,0,1,2.09c.4.81.83,1.64,1.31,2.41.22.28.36.57.54.82a.64.64,0,0,0,.14.21,14.27,14.27,0,0,0,1.23,1.72,27.68,27.68,0,0,0,2.28,2.67c.69.68,1.37,1.34,2.1,2a21.86,21.86,0,0,0,1.8,1.41c.55.39,1.09.75,1.63,1.08a23,23,0,0,0,2.46,1.38c.61.29,1.27.58,1.95.83s1.3.47,2,.69a1.72,1.72,0,0,0,.18,0,14.53,14.53,0,0,0,2.1.5.29.29,0,0,0,.18,0,14.19,14.19,0,0,0,1.7.24,5.07,5.07,0,0,0,.86.07,16.9,16.9,0,0,0,2,.12,12.47,12.47,0,0,0,1.62-.07,16.34,16.34,0,0,0,1.89-.19,16,16,0,0,0,1.59-.26c.65-.14,1.3-.32,1.95-.5.36-.1.68-.22,1-.32a.66.66,0,0,0,.26-.07,29.66,29.66,0,0,0,3.68-1.67c.51-.26,1-.55,1.48-.84.18-.1.33-.21.51-.33.47-.32,1-.65,1.45-1s1.19-.93,1.73-1.45a18.62,18.62,0,0,0,1.66-1.56c.55-.53,1.05-1.12,1.56-1.69a1.31,1.31,0,0,0,.11-.12c.46-.57.9-1.15,1.3-1.73a19.85,19.85,0,0,0,1.26-1.88c.4-.62.76-1.24,1.09-1.85,0-.11.11-.18.14-.28.36-.69.69-1.41,1-2.18s.61-1.48.9-2.29a33.47,33.47,0,0,0,1.3-4.78c.11-.6.22-1.22.33-1.84a23.12,23.12,0,0,0,.28-2.79c.08-.82.11-1.7.11-2.54v-.1A27.7,27.7,0,0,0,4188.21,2214.37ZM4160.12,2239c-10.41,0-18.84-9.66-18.84-21.54s8.43-21.58,18.84-21.58,18.87,9.71,18.87,21.58S4170.53,2239,4160.12,2239Z"/><path fill="#f4f4f4" d="M4154.51,2218.38c0,4,2.81,7.16,6.26,7.16s6.26-3.2,6.26-7.16-2.81-7.15-6.26-7.15S4154.51,2214.44,4154.51,2218.38Z"/><path fill="#ef7c59" d="M4160.77,2211.23c-3.45,0-6.26,3.21-6.26,7.15s2.81,7.16,6.26,7.16,6.26-3.2,6.26-7.16-2.81-7.15-6.26-7.15Z"/><path fill="#7b7b7b" d="M4175.42,2163.24a2.69,2.69,0,1,0,2.67-3A2.88,2.88,0,0,0,4175.42,2163.24Z"/><path fill="#ef7c59" d="M3815.84,2186.06a24.7,24.7,0,0,0-16.56,1.31v-24.75c0-5.09-3.61-9.21-8.07-9.21h0c-4.45,0-8.07,4.12-8.07,9.21v43.09a36.45,36.45,0,0,0-1.24,19c2.61,13.21,12.47,23.34,24.25,24.83,18.07,2.32,33.21-14.91,31.31-35.54C3836.22,2200.47,3827.4,2189.13,3815.84,2186.06Z"/><path fill="#f3ce90" d="M3809.4,2244.38c-13,0-23.54-12.08-23.54-26.91s10.56-26.92,23.54-26.92,23.54,12.08,23.54,26.92S3822.38,2244.38,3809.4,2244.38Z"/><path fill="#d36950" d="M3781.17,2217.4v.1c0,.84,0,1.72.11,2.54a21.26,21.26,0,0,0,.29,2.79c.1.62.21,1.24.33,1.84a31,31,0,0,0,1.3,4.78c.29.81.57,1.56.9,2.29s.65,1.49,1,2.18c0,.1.11.17.15.28.32.61.68,1.23,1.08,1.85s.83,1.31,1.26,1.88.84,1.16,1.3,1.73l.11.12c.51.57,1,1.16,1.56,1.69a20.1,20.1,0,0,0,1.66,1.56c.55.52,1.16,1,1.74,1.45s1,.69,1.45,1c.18.12.32.23.5.33.47.29,1,.58,1.48.84a29.14,29.14,0,0,0,3.69,1.67.61.61,0,0,0,.25.07c.33.1.65.22,1,.32.66.18,1.31.36,2,.5a28.53,28.53,0,0,0,3.47.45,12.55,12.55,0,0,0,1.62.07,16.9,16.9,0,0,0,2-.12,5.1,5.1,0,0,0,.87-.07,14,14,0,0,0,1.69-.24.29.29,0,0,0,.18,0,14.23,14.23,0,0,0,2.1-.5,1.27,1.27,0,0,0,.18,0c.69-.22,1.34-.44,2-.69s1.34-.54,1.95-.83a23,23,0,0,0,2.46-1.38c.54-.33,1.08-.69,1.63-1.08a21.86,21.86,0,0,0,1.8-1.41c.73-.62,1.42-1.28,2.1-2a27.68,27.68,0,0,0,2.28-2.67,13.24,13.24,0,0,0,1.23-1.72.64.64,0,0,0,.14-.21c.18-.25.33-.54.55-.82.47-.77.9-1.6,1.3-2.41a21,21,0,0,0,1-2.09,34.92,34.92,0,0,0,1.35-3.8c.14-.51.28-1,.39-1.52a35.54,35.54,0,0,0,1-8.66c0-1.19-.07-2.36-.18-3.51-.07-.83-.18-1.67-.33-2.5-.11-.61-.22-1.23-.36-1.85a.39.39,0,0,0,0-.21l-.21-1c-.18-.69-.36-1.38-.58-2s-.47-1.37-.76-2.06-.62-1.48-.94-2.22v0c-.36-.71-.73-1.41-1.12-2.1a21.11,21.11,0,0,0-1.23-2c-.43-.67-.91-1.31-1.37-1.93-.36-.46-.76-.94-1.16-1.37s-.62-.72-.94-1a32.63,32.63,0,0,0-2.86-2.65c-.51-.36-1-.75-1.52-1.12s-1.33-.87-2-1.27a10.3,10.3,0,0,0-1.05-.53,7.47,7.47,0,0,0-1.23-.62c-.57-.26-1.15-.51-1.76-.72a24.62,24.62,0,0,0-3.77-1,11,11,0,0,0-1.59-.26h-.18a20.43,20.43,0,0,0-3-.22c-.68,0-1.34,0-2,.1-.15,0-.25.05-.4.05a2.19,2.19,0,0,0-.51,0,14.65,14.65,0,0,0-1.84.29,1.1,1.1,0,0,0-.36.07.45.45,0,0,0-.18,0c-.84.18-1.63.4-2.43.65a19.59,19.59,0,0,0-2.42.9c-7.37,3.23-13.26,9.92-16.16,18.33v0c-.32.91-.58,1.86-.83,2.79s-.36,1.63-.54,2.46a2.66,2.66,0,0,0-.08.51,1.19,1.19,0,0,0,0,.33c-.15.86-.25,1.7-.33,2.58S3781.17,2216.38,3781.17,2217.4Zm9.37.07c0-11.87,8.45-21.58,18.86-21.58s18.84,9.71,18.84,21.58-8.42,21.54-18.84,21.54S3790.54,2229.35,3790.54,2217.47Z"/><path fill="#f4f4f4" d="M3815,2218.38c0,4-2.8,7.16-6.26,7.16s-6.25-3.2-6.25-7.16,2.8-7.15,6.25-7.15S3815,2214.44,3815,2218.38Z"/><path fill="#ef7c59" d="M3808.75,2211.23c-3.45,0-6.25,3.21-6.25,7.15s2.8,7.16,6.25,7.16,6.26-3.2,6.26-7.16-2.8-7.15-6.26-7.15Z"/><path fill="#7b7b7b" d="M3794.1,2163.24a2.69,2.69,0,1,1-2.67-3A2.87,2.87,0,0,1,3794.1,2163.24Z"/><path fill="#ef7c59" d="M3989.71,2194.15v-24.73c0-5.1-3.62-9.23-8.07-9.23h0c-4.46,0-8.07,4.13-8.07,9.23v43.07C3971.62,2218.21,3994.7,2192,3989.71,2194.15Z"/><path fill="#d36950" d="M3982.47,2262.72h0a13.43,13.43,0,0,1-13.38-13.4V2204a13.44,13.44,0,0,1,13.38-13.41h0a13.44,13.44,0,0,1,13.38,13.41v45.36A13.44,13.44,0,0,1,3982.47,2262.72Z"/><path fill="#7b7b7b" d="M3984.53,2170a2.69,2.69,0,1,1-2.67-3.05A2.87,2.87,0,0,1,3984.53,2170Z"/><path fill="#d36950" d="M3878,1676.64v30.41c0,20.35,18.95,36.87,42.32,36.87h4.7v34.28c0,8.58,8,15.53,17.82,15.53h69.79c9.84,0,17.82-7,17.82-15.53v-36c17.21-4.68,29.69-18.68,29.69-35.2v-30.41Z"/><path fill="#ef7c59" d="M3914,1707.12v-88.46c-8,0-12.78,2.21-12.83,2.22.5-.23,12.5-6.13,41.72-36.55,13.6-15.14,4.09-97.93-19.21-167.15l83.68-28.26c15,44.44,59.1,194.3-.81,256.71C3954.2,1700.12,3929.58,1707.12,3914,1707.12Z"/><path fill="#454545" d="M4178.91,1551.83H3796.22l34.05-508.47a83.16,83.16,0,0,1,82.91-77.67h182.63a83.16,83.16,0,0,1,83.1,83.23Z"/><path fill="#454545" d="M3564.45,1598.09h489.91a6.8,6.8,0,0,1,6.8,6.8v84.36a0,0,0,0,1,0,0H3557.65a0,0,0,0,1,0,0v-84.36A6.8,6.8,0,0,1,3564.45,1598.09Z"/><rect width="51.11" height="66.15" x="3955.37" y="1787.47" fill="#d36950"/><path fill="#ef7c59" d="M4055.54,1809.87c-.11-.06-10.86-5.66-20.6-9.81-10.39-4.4-21.66-10.62-22.14-10.88l7.4-13.43c.1.06,11.07,6.1,20.72,10.21,10.31,4.37,21.24,10.07,21.7,10.32Z"/><path fill="#ef7c59" d="M4111.36,1811.7h-52a9.45,9.45,0,0,1-9.44-9.46h0a9.46,9.46,0,0,1,9.44-9.48h52a9.47,9.47,0,0,1,9.45,9.48h0A9.46,9.46,0,0,1,4111.36,1811.7Z"/><polygon fill="#ef7c59" points="4006.78 2105.9 3955.07 2105.9 3955.07 2061.66 3955.07 2026.05 4006.78 2026.05 4006.78 2105.9"/><polygon fill="#ef7c59" points="3764.4 2158.76 3955.07 2061.66 3955.07 2105.9 3818.35 2158.76 3818.35 2168.47 3764.4 2168.47 3764.4 2158.76"/><polygon fill="#ef7c59" points="4197.45 2158.76 4006.78 2061.66 4006.78 2105.9 4143.5 2158.76 4143.5 2168.47 4197.45 2168.47 4197.45 2158.76"/><polygon fill="#ef7c59" points="3963.53 2061.66 3963.53 2168.47 3950.76 2168.47 3950.76 2176.03 4006.78 2176.03 4006.78 2168.47 3994.93 2168.47 3998.64 2061.66 3963.53 2061.66"/><path fill="#ef7c59" d="M3602.9,1632.31l-39.59-120.8a87.53,87.53,0,0,1,78.5-114.73l326.14-17,2.3,44.17-326.14,17a43.31,43.31,0,0,0-38.84,56.76l39.59,120.81Z"/><path fill="#f3ce90" d="M4178.91,1048.93V1551.8H3796.22l34.07-508.47a83.08,83.08,0,0,1,77.42-77.47c1.77-.07,3.61-.14,5.45-.14h182.67A83.14,83.14,0,0,1,4178.91,1048.93Z"/><path fill="#f19a6d" d="M4178.91,1463.49v88.31H3796.22l34.07-508.47a83.08,83.08,0,0,1,77.42-77.47C3965.86,1093.53,4058.44,1279.14,4178.91,1463.49Z" opacity=".37"/><path fill="#f19a6d" d="M3669,1598.09h489.91a6.8,6.8,0,0,1,6.8,6.8v84.36a0,0,0,0,1,0,0H3662.21a0,0,0,0,1,0,0v-84.36A6.8,6.8,0,0,1,3669,1598.09Z"/><path fill="#f19a6d" d="M4141.51,965.69h-45.7a83.16,83.16,0,0,1,83.1,83.23v502.91h45.69V1048.92A83.16,83.16,0,0,0,4141.51,965.69Z"/><path fill="#f3ce90" d="M3564.45,1598.09h489.91a6.8,6.8,0,0,1,6.8,6.8v84.36a0,0,0,0,1,0,0H3557.65a0,0,0,0,1,0,0v-84.36A6.8,6.8,0,0,1,3564.45,1598.09Z"/><path fill="#ef7c59" d="M4275.3,1398.45l-292.89,15.3c-27.56,1.44-53.85,14.38-69.8,36.94a87,87,0,0,0-11.75,78l59.38,160.61,230.8.58,109.08-263.15A24,24,0,0,0,4275.3,1398.45ZM4166.79,1653H3998.25l-55.44-138.12a43.31,43.31,0,0,1,38.84-56.77l274.82-14.35Z"/><rect width="69.61" height="12.09" x="4165.73" y="2114.26"/><path fill="#909090" d="M2363.39,2340.53s-316.82-74.44-353.75-314.31c-45.43-295.07,35.07-439.64,35.07-439.64l207,247.42,62.12,299,81.85,59.31,45.56,96.68Z"/><path fill="#3b3b3b" d="M2533.44,2167c-.73-11.69-11.09-20.75-23.58-20.6-49.36.6-160.08-4.13-160,4.9.14,11.5,33,126.63,33,126.63s-68.35,4.13-55.49,51.65c9.87,36.46,53.89,78.31,73.84,95.81a41.19,41.19,0,0,1,12.85,20.54c8.92,34,38,127.36,88.21,128.08,61.4.89,54.08-23.68,53.94-35.19C2556.15,2528.94,2538.45,2246.72,2533.44,2167Z"/><path fill="#9b9b9b" d="M2145.29,1834s18.14,574.78,42.47,635.58,157.29,0,157.29,0l31.42-622.82Z"/><path fill="#2c4da2" d="M2009.64,1416s-22.5,127.34-22.5,222.28-11.1,199.14,0,208.4,121.32,40.36,254.56,33.41,173.21-38.11,171-49.16-17.77-20.36-17.77-20.36,8.89-274.46-26.64-347.92-187-89.5-187-89.5H2018.39Z"/><path fill="#6fc183" d="M2238.23,1403.91s-126.8,28.32-190.31-2.67-27.71-209.11-27.71-209.11,34.5-244,84-249.17a411.91,411.91,0,0,1,93.17,1.37l61,207.32Z"/><path fill="#fff" d="M2124.81,936.31s-8.3,2.42-20.62,6.65l85.14,5.33s11.47,119.27,15.62,256.07c2.91,96.93,29.44,489.63,27.37,532.31l169.78-1.38a11,11,0,0,0,11-10.78c.76-31.46,2.64-126.25-.28-201.83-8.1-209.36-46.28-500.1-77.76-529.38C2289.7,951.16,2177.37,937,2177.37,937Z"/><path fill="#fff" d="M1985.46,1699.47c-3.81-52,65.89-440.41,77.74-563.9C2078.31,978.5,2102.57,945,2104.06,943c-32.47,11.09-92.7,34.81-103.78,60.41-13.25,30.71-33.46,517.23-38.6,646.22A59.16,59.16,0,0,0,1985.46,1699.47Z"/><path fill="#f5b0a6" d="M2212.92,1382.87s-110.89,18.36-132.8,38.57,31.24,97.75,44.9,110.33,111-51.25,111-51.25l14.07-55.71Z"/><path fill="#f5b0a6" d="M2080.12,1421.44s-46.34,66.35-38.68,93.73,63.49-57.27,63.49-57.27Z"/><path fill="#f5b0a6" d="M2161.76,1513.36s57.42-8.12,46.09,12.73-72.68,17.22-82.83,5.68,21.88-43,21.88-43Z"/><path fill="#f18a8b" d="M2169.19,1519.65a2.31,2.31,0,0,1-.82-4.47l12.55-4.79-9.76-7.23a2.31,2.31,0,0,1,2.75-3.71l13.15,9.74a2.32,2.32,0,0,1-.55,4l-16.5,6.29A2.37,2.37,0,0,1,2169.19,1519.65Z"/><path fill="#f18a8b" d="M2086.79,1479.24a2.18,2.18,0,0,1-.83-.15,2.31,2.31,0,0,1-1.32-3c1.05-2.74,10.46-26.85,16.12-31.67a2.31,2.31,0,0,1,3,3.53c-3.58,3-11,19.9-14.8,29.81A2.3,2.3,0,0,1,2086.79,1479.24Z"/><path fill="#f18a8b" d="M2104.32,1507.28a2.48,2.48,0,0,1-1-.25,2.32,2.32,0,0,1-1-3.11l19.93-39.42a2.31,2.31,0,1,1,4.11,2.09L2106.39,1506A2.33,2.33,0,0,1,2104.32,1507.28Z"/><path fill="#f5b0a6" d="M2191.66,888.67l-2.58,66.19s-12.66,18.56-51.45,20.19c-28.89,1.22-37.43-13.95-37.43-13.95l9.23-57.65,70.41-12.65Z"/><path fill="#f18a8b" d="M2191.71,884.63a21.41,21.41,0,0,1-2.17,6.31c-16.07,32.48-68.65,44.21-85.34,45l5.23-32.54Z" opacity=".61"/><path fill="#fff" d="M2313.22,977.63s192.42,122.4,190.9,311.19-271.3,207.53-271.3,207.53l-46.06-128.45,113.38-103.33Z"/><path fill="#ececec" d="M2173.34,2494.86a2.5,2.5,0,0,1-.75-4.88l55.85-17.64a2.5,2.5,0,0,1,1.51,4.77l-55.86,17.64A2.78,2.78,0,0,1,2173.34,2494.86Z"/><path fill="#ececec" d="M2412.78,2330.88a2.47,2.47,0,0,1-2.15-1.22l-29.86-50.46a2.5,2.5,0,0,1,4.3-2.56l29.86,50.46a2.51,2.51,0,0,1-.88,3.43A2.46,2.46,0,0,1,2412.78,2330.88Z"/><path fill="#ddd" d="M2228.88,1332.22a2.5,2.5,0,0,1-2.1-4.25c3-3,73.39-73.39,103.27-88.78a2.5,2.5,0,0,1,2.29,4.45c-29.2,15-101.3,87.14-102,87.87A2.47,2.47,0,0,1,2228.88,1332.22Z"/><path fill="#f5b0a6" d="M2131.78,977.83c-24.57,0-33.36-14.81-33.75-15.49a2.5,2.5,0,0,1,4.33-2.49c.36.61,9.17,15.13,35,12.71,24.54-2.26,50-19.59,50.26-19.77a2.5,2.5,0,0,1,2.83,4.13c-1.08.74-26.78,18.24-52.63,20.63C2135.73,977.74,2133.71,977.83,2131.78,977.83Z"/><path fill="#243354" d="M2056.43,1102.51a3.33,3.33,0,0,1-3.33-3.3c0-5.19-.73-127.53,45.14-161a3.33,3.33,0,1,1,3.91,5.39c-43.1,31.41-42.4,154.25-42.39,155.49a3.34,3.34,0,0,1-3.3,3.37Z"/><path fill="#243354" d="M2076.31,1105.67a19.89,19.89,0,1,1-19.88-19.92A19.89,19.89,0,0,1,2076.31,1105.67Z"/><ellipse cx="2056.43" cy="1105.67" fill="#5681bf" rx="7.74" ry="7.75"/><path fill="#eaeaea" d="M2258.2,1699a2.49,2.49,0,0,1-2.5-2.51V1556.35a2.51,2.51,0,0,1,2.49-2.5l122.07-.49c.56-.26,1.3.26,1.77.73a2.49,2.49,0,0,1,.73,1.77v135.93a2.5,2.5,0,0,1-2.4,2.5L2258.29,1699Zm2.49-140.17V1693.9l117.08-4.51v-131Z"/><path fill="#fff" d="M1667.55,1261.9s84.88,88.93,211.3,68.06,154-115.75,154-115.75l-15.53-230s-110.63,95.53-170,126.27-164.88,40.43-164.88,40.43Z"/><path fill="#7a8db0" d="M1480.25,2536c0,59.28-42.17,107.33-94.19,107.33H553.92c-52,0-94.19-48-94.19-107.33h0c0-59.3,42.18-107.4,94.19-107.4h832.14c52,0,94.19,48.1,94.19,107.4Z"/><rect width="210.4" height="305.91" x="2827.22" y="832.1" fill="#fff"/><rect width="111.76" height="7.97" x="2889.37" y="852.93" fill="#b5cae8"/><rect width="47.66" height="7.97" x="2889.37" y="868.01" fill="#b5cae8"/><rect width="47.66" height="7.97" x="2849.91" y="1088.17" fill="#b5cae8"/><rect width="80.77" height="7.97" x="2937.03" y="1088.17" fill="#b5cae8"/><rect width="168.98" height="7.97" x="2848.99" y="1102.7" fill="#b5cae8"/><rect width="168.99" height="7.97" x="2848.63" y="1114.29" fill="#b5cae8"/><rect width="47.66" height="7.97" x="2948.9" y="868.01" fill="#b5cae8"/><path d="M3026.68,1126.48H2840.41V843.93h186.27ZM2842.87,1124h181.35V846.4H2842.87Z"/><path fill="#99b1da" d="M2891.76,897.28s12.9-13.25,45.13-14.15,47.27,22.15,50.85,24.25,7.88,35.11,7.88,35.11-2.86,16.9,7.88,23.15l10.74,6.26s10.42,8.32-3.58,13.57c-4.26,1.6,0,17.07,0,17.07s.72,4.94-.71,16.21-15,12-32.24,11.26-24.2,7.47-23.34,21.43,9.21,32.24,9.21,32.24l-67.2-1.66s5.41-32.47-4.62-56.59-23.27-20.45-24.71-64.34S2891.76,897.28,2891.76,897.28Z"/><polygon fill="#243354" points="2989.53 943.41 2998.58 948.5 3003.59 955.07 2996.17 955.07 2989.53 949.33 2989.53 943.41"/><path fill="#5681bf" d="M2932.42,890.25s-20.9,5.2-34.06,15.52c-14.15,11.1-21.33,27.79-23.16,45.38-3.14,30.33,39.51,78.95,69,49.37,3.88-3.91,4.08-10.19,7.08-14.81-2,14.24-6,35.11,12.38,36.84,9.54.9,19-.57,28.47-.57l9.05-36.78-9.87-11.47,2.47-8.23-1.44-24.36-4-15.58c0-12-17.59-25.51-28.28-29.84S2932.42,890.25,2932.42,890.25Z"/><path fill="#5681bf" d="M2962.49,906c-1-.27-2.92-2.08-6-3.92,0,0,0,0,0-.06,0-3.75-6.3-6.79-14.08-6.79-6.2,0-11.45,1.93-13.33,4.62-7.65,1.54-22.53,5.67-22.53,14.36-4.41-1.53-8.6,1.08-11.76,4.14-3.16-.11-7.63,3.47-10.83,9s-4.05,11.17-2.4,13.87c-1.54,3.75-2.56,7-2.2,8.56,0,.14,0,.26,0,.4a7,7,0,0,0-2.59,6.36,9.16,9.16,0,0,0,4.88,8.89l-.06,0c-1.91,1.1-1.84,4.83.17,8.31,1.57,2.72,3.84,4.47,5.68,4.59a3.77,3.77,0,0,1,.34,1.45,5,5,0,0,0,.33,1.71c0,.07,0,.15,0,.22a7.79,7.79,0,0,0,7.78,7.8,7.61,7.61,0,0,0,2.79-.54,43.5,43.5,0,0,0,7.76,1.44c14.14,1.42,24.7-3.16,26-7.87.87-3.18,4.31-14.24,6.45-21.1l1.77-5.63s7.05-5.68,14.45-12.42,7.4-4.55,7.4-11.4c0-4.79,1.19-14.37,1.08-20C2963.64,908.69,2963.4,906.22,2962.49,906Z"/><path fill="#fff" d="M2997.35,956.55a9.06,9.06,0,1,1-9-9.07A9.06,9.06,0,0,1,2997.35,956.55Z"/><path fill="#243354" d="M2979.5,955.41a5,5,0,0,1,1-3.57,8.73,8.73,0,0,1,3.15-2.09,6.45,6.45,0,0,1,3.78-.22,6.32,6.32,0,0,1,3.4,1.46,7.44,7.44,0,0,0-3.46-1,6.36,6.36,0,0,0-3.48.32,9.25,9.25,0,0,0-3,1.82A5.63,5.63,0,0,0,2979.5,955.41Z"/><path fill="#243354" d="M2979.8,957.73a13.67,13.67,0,0,0,2.38,2.82,16.08,16.08,0,0,0,3.18,1.85,4.19,4.19,0,0,0,3.43.31,13.92,13.92,0,0,0,3.27-1.74,9.83,9.83,0,0,1-3.1,2.18,4.53,4.53,0,0,1-3.84-.18,14.26,14.26,0,0,1-3.23-2.05A9.59,9.59,0,0,1,2979.8,957.73Z"/><path fill="#243354" d="M2979.5,955.41a4.66,4.66,0,0,1,.84-1.79,2.91,2.91,0,0,1,1.67-1.17,10.45,10.45,0,0,1,3.93-.23h.07l0,0,.77,1-1-.75.11,0a24,24,0,0,0-3.76.47,3,3,0,0,0-1.51.9A6.9,6.9,0,0,0,2979.5,955.41Z"/><path fill="#3d5891" d="M2944.81,928.44c0-3-5.23-5.35-11.68-5.35s-11.69,2.4-11.69,5.35c0,1.56,1.48,3,3.82,3.94a2,2,0,0,0-.18.8c0,2,3.13,3.7,7,3.7s7-1.66,7-3.7a.7.7,0,0,0,0-.14C2942.48,932.11,2944.81,930.41,2944.81,928.44Z"/><path fill="#3d5891" d="M2914.6,932.25c0,2.9,3.08,5.25,6.88,5.25s6.89-2.35,6.89-5.25-3.08-5.25-6.89-5.25S2914.6,929.35,2914.6,932.25Z"/><path fill="#243354" d="M2980,954.2a41.09,41.09,0,0,1-7.27-2.93l-.41-.35a33.24,33.24,0,0,0-15.7-8.18c-4.73-1-8.23.59-11.19,3-7.67,1.38-28.49,11.17-28.49,16.59a10.57,10.57,0,1,0,21.14,0c0-2.07,1.87-4.79,4-7.42,3.22-3.28,8.5-8.35,13.53-7.29a28.57,28.57,0,0,1,13.43,7l.48.42c1.63,1.41,9.44,3.78,11.6,4.48Z"/><path fill="#3d5891" d="M1407.77,2511.27c6.12-10.67,11-23.43,14.43-37.94,41.53-134,70.7-448.38,70.7-815,0-389.83-33-720.48-78.79-838A110.08,110.08,0,0,0,1401,793q-6.06-9.76-12.41-14.4c-21.44-20.15-49.32-25.15-73.33-24.38,0,0-666.86-1.9-673.11-1.9-147.34,0-266.75,407.21-266.75,909.58S494.84,2571.5,642.18,2571.5h673.11c10.58,0,41.5-6.42,68.18-30.32C1391.85,2537.87,1400,2527.53,1407.77,2511.27Z"/><path fill="#243354" d="M1451.56,1717.55c0,405.61-22.76,734.39-50.79,734.39S1350,2123.16,1350,1717.55s22.75-734.36,50.79-734.36S1451.56,1312,1451.56,1717.55Z"/><path fill="#fff" d="M1289.5,1659.89c0-483.81,44.28-876,99-876a13.53,13.53,0,0,1,6.62,2.16c-6.46-11.44-13.14-17.49-20-17.49-55.88,0-101.15,400.79-101.15,895.22s45.27,895.2,101.15,895.2c9.09,0,17.88-10.8,26.27-30.69-4.24,4.91-8.55,7.71-12.93,7.71C1333.78,2536,1289.5,2143.7,1289.5,1659.89Z"/><path fill="#2f4171" d="M380.23,1569.79q-1.08,41-1.13,82.9c0,502.37,119.41,909.64,266.75,909.64H1319c7.84,0,41.89,2.45,62-9.1-39-143.82-83.73-522.66-91.69-983.44Z" opacity=".33"/><polygon fill="#eaa8a2" points="3146.55 1921.49 3306.97 1902.85 3255.74 1751.31 3124.36 1735.01 3146.55 1921.49"/><path fill="#294991" d="M2092.11,1887.1s123.49,41.45,223.88,37.77,327.8-7.89,367.82-4.63,482.74,29.51,482.74,29.51,24.33-72.31,26.57-151.41-10.28-72.52-10.28-72.52-491.67-103.16-634.45-139c-211-53-426.38-5.62-426.38-5.62Z"/><path fill="#b6b6b6" d="M2946.72,1943.52a3.4,3.4,0,0,1-3.64,3.25l-274.86-25a3.4,3.4,0,0,1-3-3.65,3.35,3.35,0,0,1,3.63-3l274.85,25A3.36,3.36,0,0,1,2946.72,1943.52Z"/><path fill="#2c4da2" d="M2112.09,1957.12s123.48,41.45,223.87,37.77,327.81-7.9,367.83-4.63,481.54,7.43,481.54,7.43,25.53-50.23,27.76-129.33-20-70-20-70-477.59-144.78-624.76-141.54-437.41-4.91-437.41-4.91Z"/><path fill="#f3ce90" d="M1625.91,1931.5s30.92,95.09,152.52,103.26S2128.8,1975,2128.8,1975s35.42-199.1,27.83-265.92-370.11,39.48-370.11,39.48Z"/><path fill="#f3ce90" d="M2134.73,1586.26s-410.75-5.57-502.1,107.35-6.72,237.89-6.72,237.89l486.93-1.14S2194.7,1730.81,2134.73,1586.26Z"/><path fill="#f5b0a6" d="M1511.28,1849.63l76.09,3.51s22.51-12.73,28.18-57.15c4.23-33.09-12.32-44.39-12.32-44.39l-67,5-21.38,79.7Z"/><path fill="#f18a8b" d="M1514.89,1836.26a25.2,25.2,0,0,0,7.44-1.88c38.79-15.3,49.14-61.54,51.73-80.64l-37.79,2.82Z" opacity=".61"/><path fill="#5681bf" d="M2274.64,1914a100.21,100.21,0,0,1-6.62,32.26,3.34,3.34,0,0,1-4.3,2,3.4,3.4,0,0,1-2-4.3c25.79-69.31-35.45-101.82-38.07-103.17a3.35,3.35,0,0,1,3.06-6C2227.32,1835.12,2276.14,1860.94,2274.64,1914Z"/><path fill="#f5b0a6" d="M1975.24,1839.35l-58.94,185.83s101.79,17.59,211.34-5.58c73.44-15.53,212.29-45.81,266.48-79,37.79-23.16,58.64-56.78,67.74-74.82a9.44,9.44,0,0,0-7.7-13.66l-11.67-1s2.79.22,1.35-13-36.21,11.36-36.21,11.36,11.8-21.56-6.31-15.88-48,29.83-71.57,37.69l-23.6,7.87s20.66-36.85,12.14-46.36c-8.79-9.8-38,22.93-46.87,32.6s-16.77,25.07-16.77,25.07S2090.15,1908.4,1975.24,1839.35Z"/><path fill="#f18a8b" d="M2351.18,1896.78a3.24,3.24,0,0,1-2.62-5.93c.41-.2,41.05-20.35,56.39-43.18a3.24,3.24,0,1,1,5.37,3.62c-16.3,24.27-57.17,44.53-58.91,45.39Z"/><path fill="#f18a8b" d="M2374,1919.05a3.24,3.24,0,0,1-2.46-6c.51-.22,49.89-21.35,68-63.22a3.24,3.24,0,1,1,5.94,2.59c-19.17,44.29-69.31,65.72-71.45,66.61Z"/><path fill="#5681bf" d="M2837.94,1710.39a3.43,3.43,0,0,1-3.92,3.12c-2.75-.48-276.88-48.28-367-48.74-90.42-.48-256.83-6.42-258.5-6.49a3.34,3.34,0,0,1-2.7-1.55l-24.74-39a3.34,3.34,0,1,1,5.63-3.58l23.8,37.5c18.14.64,171.24,6,256.54,6.41,90.64.47,365.32,48.37,368.09,48.85A3.35,3.35,0,0,1,2837.94,1710.39Z"/><path fill="#5681bf" d="M2990.53,1988.19a3.4,3.4,0,0,1-3.41,3.49l-275.93-5.91a3.41,3.41,0,0,1-3.27-3.43,3.37,3.37,0,0,1,3.42-3.28l275.92,5.91A3.37,3.37,0,0,1,2990.53,1988.19Z"/><path fill="#f19a6d" d="M1609.5,1873.43s-45.76,10.41-47.28-1.34,19.68-39.56,28.15-67-13.5-51-1.12-54.5,48.42,4.65,48.42,4.65S1658,1811.73,1609.5,1873.43Z"/><path fill="#fff" d="M1632.16,1828.5c-.62,22.2-19.25,46-20.05,47a3.34,3.34,0,0,1-5.24-4.15c.18-.23,18.05-23.09,18.61-43a3.45,3.45,0,0,1,3.42-3.61,3.34,3.34,0,0,1,3.27,3.42Z"/><rect width="72.38" height="48.87" x="1765.61" y="1651.61" fill="#fff" rx=".32" transform="matrix(-.18 -.98 .98 -.18 468.16 3744.14)"/><path fill="#f3ce90" d="M1836.37,1821.22l392.8,53.34,53.27,121.7s-356.19,83.36-526,33.34Z"/><rect width="218.06" height="300.15" x="2592.9" y="839.01" fill="#fff"/><path fill="#262626" d="M2800.9,1126H2603V843.54H2800.9Zm-195.47-2.47h193V846h-193Z"/><rect width="140.36" height="10.17" x="2611.42" y="852.31" fill="#99b1da"/><rect width="37.47" height="7.97" x="2756.58" y="854.46" fill="#b5cae8"/><rect width="182.85" height="4.61" x="2611.03" y="865.46" fill="#b5cae8" rx=".51"/><path fill="#5681bf" d="M2688.51,992.19c0-.07,0-.14,0-.22,0-1,.12-2,.06-3-.22-3.62-.76-7.25-.68-10.86a50.26,50.26,0,0,0-2.81-18.42,3.54,3.54,0,0,1-.27-1.46,50.21,50.21,0,0,0-2.46-19.16,18.63,18.63,0,0,1-.78-4.69c-.21-4.57-.63-9.09-2.72-13.27-1.77-3.53-4.4-6.16-8.34-7a20,20,0,0,1-6.42-2.71c-1.78-1.13-3.56-2.28-5.43-3.25a6.48,6.48,0,0,1-3.65-4.61,11.32,11.32,0,0,0,1.67-2.34c.61-1.58,1.16-3.18,1.68-4.79,2.91-.65,3.59-5.59,2.15-7a1.39,1.39,0,0,0-1.83-.31,14,14,0,0,0,.82-4.93,10.38,10.38,0,0,0-2.12-5.77,4.29,4.29,0,0,0-3.35-1.62s-1-1.61-5.38-1.91-9.66,1.66-11.1,5.69a13.55,13.55,0,0,0-.26,8.61h0a1.39,1.39,0,0,0-2,.23c-1.46,1.37-.74,6.41,2.25,7a25.71,25.71,0,0,0,1.21,3.16c.51,1.14,1.14,2.24,1.71,3.36.15.29.44.64.37.88a5.65,5.65,0,0,1-2.49,3.79c-2.46,1.43-4.79,3.07-7.25,4.51a11.93,11.93,0,0,1-3.64,1.56c-6,1.11-9.29,5-11.06,10.49a38.14,38.14,0,0,0-1.48,11.44,7.91,7.91,0,0,1-.39,2.42,49.19,49.19,0,0,0-2.88,20.19,4,4,0,0,1-.29,1.59,42.82,42.82,0,0,0-2.58,11.81c-.33,5.5-.56,11-.83,16.52-.05,1-.16,2-.14,3l0,.82h.05l-.08,3.39a76.87,76.87,0,0,0,.53,8.62,22.11,22.11,0,0,0,1.9,4.52,18.52,18.52,0,0,0,2.63,2.81c.93.62,2.33,1.38,1.95,0s-2.5-3-2.95-4.18l2.59,1c.51.19.53-.45.53-.45-.39-1.22-2.37-2.43-3.69-3.12a8.29,8.29,0,0,1,.13-3.26c.59-2.36,1.27-3.36,2.37-3.31s1.4,2.29,2.67,3,1.61-.38,1.61-.38c-1.18-1.24-.76-4.24-1.14-6a5.08,5.08,0,0,0-1.59-2.68,5.77,5.77,0,0,1,.24-1.8c2-6.54,4.06-13.07,5.69-19.71a46,46,0,0,0,.94-10.11,11.89,11.89,0,0,1,.5-3.85c1.08-3.08,2.08-6.18,3.12-9.27.1-.32.24-.63.36-.94l.44,0c.5,6.69,1.1,13.37,1.46,20.06a62.92,62.92,0,0,1-.24,9.9c-.8,7.5-2.16,14.94-2.71,22.44-.71,9.65.82,19.22,2.83,28.61a78.15,78.15,0,0,1,1.91,17.34,32.26,32.26,0,0,1-.81,5.12c-.3,1.63-.79,3.22-1,4.86a49.88,49.88,0,0,0,1.84,18.83c1.41,5.22,3.23,10.34,5,15.46a28.47,28.47,0,0,1,1.83,7.46,18.71,18.71,0,0,0-1.07,4.35c-.11,1.87-5.87,6-6.67,8.15s.46,2.69.46,2.69h14.29c1.47,0,2.26-1.1,2.26-2.91s-1.58-11.65-1.71-12.46a117.62,117.62,0,0,1,.29-25.51,53.5,53.5,0,0,0-1.22-19.16,14.24,14.24,0,0,1,.43-7.6,29.4,29.4,0,0,0,1.33-6.28c.94-11.14,1.76-22.28,2.62-33.42.1-1.37.23-2.75.34-4.12a.8.8,0,0,1,.35.66c.86,11.37,1.69,22.74,2.6,34.11.24,3,.22,6.06,1.48,8.93a12.27,12.27,0,0,1,.52,7.83,53.52,53.52,0,0,0-1.25,18.62,55.76,55.76,0,0,1,.67,6.28c.12,6.54.38,13.09-.28,19.6h0s-1.72,10.71-1.72,12.52.79,2.91,2.26,2.91h14.3s1.24-.48.45-2.69-6.56-6.28-6.67-8.15a18,18,0,0,0-1.07-4.35h-.05a22.5,22.5,0,0,1,1.9-7.43,107.8,107.8,0,0,0,5.56-18c1.26-6.05,2.08-12.16.93-18.34-.41-2.2-1.33-4.35-1.43-6.55a78,78,0,0,1,1.85-18.86c2.09-10.62,4-21.34,2.39-32.29-.68-4.59-1.13-9.22-1.62-13.84a103.63,103.63,0,0,1-1-11.37c0-5,.54-10.1.95-15.14.21-2.55.66-5.09,1-7.63,1.56,3.8,2.86,7.58,4.14,11.36a2.72,2.72,0,0,1,0,.81,66.63,66.63,0,0,0,.23,8.49c1.16,7.8,3.69,15.25,6.21,22.7a5.86,5.86,0,0,1,.29,1.93,5.13,5.13,0,0,0-1.68,2.77c-.38,1.76,0,4.76-1.14,6,0,0,.34,1.14,1.61.38s1.56-3,2.67-3.05,1.78,1,2.37,3.31a8.48,8.48,0,0,1,.13,3.26c-1.32.69-3.3,1.89-3.69,3.12,0,0,0,.64.53.45l2.59-1c-.45,1.19-2.59,2.88-2.95,4.18s1,.62,1.95,0a18.52,18.52,0,0,0,2.63-2.81,22.11,22.11,0,0,0,1.9-4.52,76.87,76.87,0,0,0,.53-8.62Z"/><path fill="#99b1da" d="M2706.13,983.83c-2.76,0-3.18-3.1-3.71-7l0-.18c-.51-3.75-.49-6.74,4.61-8.35a15.27,15.27,0,0,1,8.95,0l.06,0c2.06,1.08,1.82,3.32,1.61,5.28a19.14,19.14,0,0,0-.14,2.1c.06,2.55-.46,2.82-3.21,3.82l-1.43.53a9.2,9.2,0,0,0-3.49,2.24,4.21,4.21,0,0,1-2.94,1.51Zm5.27-15.17a13.64,13.64,0,0,0-4.1.61c-4,1.28-4.46,3.19-3.9,7.25l0,.19c.56,4.1.95,6.25,2.92,6.1a3.32,3.32,0,0,0,2.31-1.23,10.28,10.28,0,0,1,3.83-2.46l1.44-.53c2.59-.94,2.59-.94,2.55-2.84a16.6,16.6,0,0,1,.15-2.23c.23-2.17.27-3.55-1-4.26A14,14,0,0,0,2711.4,968.66Z"/><path fill="#99b1da" d="M2718.62,977.84a1.11,1.11,0,0,1-.67-.21,2.17,2.17,0,0,1-.61-1.93c0-.37,0-1.19,0-2.06,0-1.29-.06-2.75,0-3.66a2.15,2.15,0,0,1,2.13-2,18,18,0,0,1,7.06.6,2.41,2.41,0,0,1,1.93,2.07,2.11,2.11,0,0,1-1.05,2l-.83.38c-.86.38-2,.9-2.76,1.31a17.4,17.4,0,0,0-1.83,1.41,14.55,14.55,0,0,1-2.69,2A1.75,1.75,0,0,1,2718.62,977.84Zm.89-8.87a1.14,1.14,0,0,0-1.16,1.09c-.07.86,0,2.29,0,3.55,0,.94,0,1.74,0,2.16,0,.64.09,1,.19,1s.2,0,.37,0a15.29,15.29,0,0,0,2.43-1.8,16.34,16.34,0,0,1,2-1.51c.77-.43,1.92-1,2.84-1.36l.82-.37a1.14,1.14,0,0,0,.47-1c0-.54-.46-1-1.21-1.17a17,17,0,0,0-6.7-.56Z"/><path fill="#99b1da" d="M2714.5,968.66a11.34,11.34,0,0,1,.07-3.63l-.12,0-.15,0a7.5,7.5,0,0,1-1.3,3.48l-.79-.62a7,7,0,0,0,1.12-3.26v-.13l.07-.11c.07-.11.39-.47,1.21-.34a1.14,1.14,0,0,1,1,.67l0,.13,0,.13a11.11,11.11,0,0,0-.13,3.54Z"/><path fill="#99b1da" d="M2718,968.84s-.15-.55-.36-1.36a12.93,12.93,0,0,1-.27-2.24c0-.18.12-.73,1-.92a1.13,1.13,0,0,1,1.28.39l.08.12V965a6.11,6.11,0,0,0,.22,1.79,5.15,5.15,0,0,0,1,1.17l-.69.74a6,6,0,0,1-1.19-1.47,5.86,5.86,0,0,1-.32-1.92l-.14,0a.59.59,0,0,0-.19.06,12.26,12.26,0,0,0,.23,1.85c.21.81.36,1.34.36,1.35Z"/><path fill="#99b1da" d="M2716.26,969.59l-.12-1a10.39,10.39,0,0,1,2.11,0l-.09,1A11,11,0,0,0,2716.26,969.59Z"/><path fill="#99b1da" d="M2717.49,977.47a1.72,1.72,0,0,1-.72-.15l.44-.91a.81.81,0,0,0,.6,0l.38.94A1.93,1.93,0,0,1,2717.49,977.47Z"/><path fill="#99b1da" d="M2706.22,1105.55h-.34a4.26,4.26,0,0,1-3.79-2.54c-1.51-3.38-.88-6.55,2-10a7.17,7.17,0,0,1,6.24-2.51,2.73,2.73,0,0,1,2.29,1.36,4.55,4.55,0,0,1-.41,4,11.35,11.35,0,0,0-.74,4,7.05,7.05,0,0,1-.85,3.58A5.16,5.16,0,0,1,2706.22,1105.55Zm3.33-14.07a6.29,6.29,0,0,0-4.72,2.18c-2.61,3.15-3.17,5.9-1.82,8.93a3.28,3.28,0,0,0,2.93,1.94,4.21,4.21,0,0,0,3.77-1.68,6,6,0,0,0,.71-3.1,12.31,12.31,0,0,1,.83-4.35l0-.08a3.63,3.63,0,0,0,.37-3,1.89,1.89,0,0,0-1.5-.78A6.08,6.08,0,0,0,2709.55,1091.48Z"/><path fill="#99b1da" d="M2712.82,1110.62a1.58,1.58,0,0,1-1-.27c-.25-.21-.32-.26-.28-4.68V1102a2.41,2.41,0,0,0-.93-2l.63-.79a3.43,3.43,0,0,1,1.32,2.76v3.72c0,.83,0,3.18,0,3.91a1.61,1.61,0,0,0,.49,0v-7a11.38,11.38,0,0,0-.57-4.41,17.64,17.64,0,0,0-1.22-2l.82-.6a19.31,19.31,0,0,1,1.3,2.14c.68,1.31.68,3.46.68,4.88v7.18C2714.09,1110.28,2713.57,1110.62,2712.82,1110.62Z"/><path fill="#99b1da" d="M2713.05,1098.08l-.52-.87s.46-.28,1-.67a4.13,4.13,0,0,0,.91-1,.22.22,0,0,0-.08-.2l-.06,0a5,5,0,0,1-.71.78,4,4,0,0,1-1.38.86l-.31-1,.16.48-.16-.48a3.9,3.9,0,0,0,1.67-1.41.75.75,0,0,1,.86-.33,1.7,1.7,0,0,1,.6.35,1.26,1.26,0,0,1,.39,1.22l0,.09-.08.16a5.31,5.31,0,0,1-1.21,1.32C2713.53,1097.79,2713.05,1098.08,2713.05,1098.08Z"/><path fill="#99b1da" d="M2712.07,1096l-.36-.36h-.5v-.2l.14-.15a3.83,3.83,0,0,0,.87-1.49.74.74,0,0,1,.74-.57h0a1.65,1.65,0,0,1,.66.17,1.26,1.26,0,0,1,.72,1.07.66.66,0,0,1,0,.3,5.94,5.94,0,0,1-.49,1.13l-.87-.5a4.94,4.94,0,0,0,.38-.91.24.24,0,0,0-.13-.17l-.07,0a4.9,4.9,0,0,1-.46,1,5.13,5.13,0,0,1-.44.6h0Zm1.26-1.47h0Zm0-.1h0Zm-.4-.19h0Z"/><path fill="#99b1da" d="M2724.43,1105.55a5.16,5.16,0,0,1-4.36-2.18,7,7,0,0,1-.85-3.58,11.35,11.35,0,0,0-.74-4,4.55,4.55,0,0,1-.41-4,2.73,2.73,0,0,1,2.29-1.36,7.17,7.17,0,0,1,6.24,2.51c2.84,3.43,3.47,6.6,2,10a4.26,4.26,0,0,1-3.79,2.54Zm-3.33-14.07a6.08,6.08,0,0,0-.61,0,1.87,1.87,0,0,0-1.5.78,3.62,3.62,0,0,0,.37,3l0,.08a12.31,12.31,0,0,1,.83,4.35,6,6,0,0,0,.71,3.1,4.2,4.2,0,0,0,3.77,1.68,3.28,3.28,0,0,0,2.93-1.94c1.35-3,.79-5.78-1.82-8.93A6.29,6.29,0,0,0,2721.1,1091.48Z"/><path fill="#99b1da" d="M2717.83,1110.62c-.75,0-1.27-.34-1.27-.83v-7.18c0-1.42,0-3.57.68-4.88a19.31,19.31,0,0,1,1.3-2.14l.82.6a17.64,17.64,0,0,0-1.22,2,11.38,11.38,0,0,0-.57,4.41v7a1.61,1.61,0,0,0,.49,0c.06-.73,0-3.08,0-3.91V1102a3.43,3.43,0,0,1,1.32-2.76l.63.79a2.41,2.41,0,0,0-.93,2v3.71c0,4.42,0,4.47-.28,4.67A1.52,1.52,0,0,1,2717.83,1110.62Z"/><path fill="#99b1da" d="M2717.6,1098.08s-.48-.29-1.08-.71a5.31,5.31,0,0,1-1.21-1.32l0-.08-.05-.17a1.26,1.26,0,0,1,.39-1.22,1.7,1.7,0,0,1,.6-.35.75.75,0,0,1,.86.33,3.9,3.9,0,0,0,1.67,1.41l-.31,1a4,4,0,0,1-1.38-.86,5,5,0,0,1-.71-.78l-.06,0a.22.22,0,0,0-.08.2,4,4,0,0,0,.91,1c.56.39,1,.67,1,.67Z"/><path fill="#99b1da" d="M2718.58,1096v0h0a4.83,4.83,0,0,1-.58-.75,4.9,4.9,0,0,1-.46-1l-.07,0a.23.23,0,0,0-.13.17,4.65,4.65,0,0,0,.38.91l-.87.5a6.07,6.07,0,0,1-.5-1.16.71.71,0,0,1,0-.3,1.26,1.26,0,0,1,.72-1,2,2,0,0,1,.7-.17.74.74,0,0,1,.7.56,3.45,3.45,0,0,0,.42.91,3.4,3.4,0,0,0,.45.59l.14.15v.2H2719Zm-1.26-1.49h0Zm0-.11v0Zm.42-.16h0Z"/><path fill="#99b1da" d="M2719.76,945.11h-.18a3.64,3.64,0,0,1-2.56-.86,12.24,12.24,0,0,0-4-2c-5.46-1.82-4.67-8.29-4.62-8.68s.49-4.23,3.88-5.84,5-.52,6.08.69a9.39,9.39,0,0,1,.81,1.07,6.93,6.93,0,0,0,2.78,2.61c2.31,1.22,3.07,3.35,2.32,6.5l-.08.38C2723.58,941.46,2722.73,945.11,2719.76,945.11Zm-4.47-17.17a6.37,6.37,0,0,0-2.61.74c-2.94,1.4-3.31,5-3.31,5v0c0,.25-.86,6,3.93,7.59a13.3,13.3,0,0,1,4.34,2.12,2.72,2.72,0,0,0,2,.65c2.1.09,2.84-2.35,3.53-5.31l.09-.38c.63-2.68.06-4.39-1.81-5.38a7.79,7.79,0,0,1-3.15-2.93,9.24,9.24,0,0,0-.72-1A3,3,0,0,0,2715.29,927.94Z"/><path fill="#99b1da" d="M2708.72,937.12a5.43,5.43,0,0,1-2.56-4.49,5.26,5.26,0,0,1,1.92-4.82c3-2.14,5.17-.19,5.19-.17l-.68.75c-.07-.06-1.62-1.4-3.92.24a4.29,4.29,0,0,0-1.5,3.92,4.46,4.46,0,0,0,2,3.67Z"/><path fill="#99b1da" d="M2717.84,928.35l-1-.27a1.66,1.66,0,0,1,1.22-1.18,5.08,5.08,0,0,1,1.65.06.47.47,0,0,0,.14-.2.9.9,0,0,0,0-.35,5.49,5.49,0,0,0-2.84-.77c-1.9,0-2.4.58-2.72,1.14a2.23,2.23,0,0,0-.32,1l-1,0a3.16,3.16,0,0,1,.45-1.53c.47-.83,1.25-1.66,3.61-1.65a6,6,0,0,1,3.59,1.08l.11.08.05.12a1.84,1.84,0,0,1,0,1.15,1.4,1.4,0,0,1-.89.92l-.13,0-.13,0a4.61,4.61,0,0,0-1.4-.09C2718,928,2717.84,928.35,2717.84,928.35Z"/><path fill="#99b1da" d="M2722.4,932.73l-1-.05a4.06,4.06,0,0,0-1.53-3.77,4.89,4.89,0,0,0-2.06-.86l.06-1a5.62,5.62,0,0,1,2.55,1A4.91,4.91,0,0,1,2722.4,932.73Z"/><path fill="#99b1da" d="M2707.1,929.38c-.08-.11-.72-1.1-.37-3.5a19.37,19.37,0,0,1,.41-1.93c.29-1.13.49-1.88,0-2.71l-.06-.18a1.46,1.46,0,0,1,1-1.38,2,2,0,0,1,1.83,0l.09.07a2.68,2.68,0,0,1,.64,1.31,3.66,3.66,0,0,1,.65-.51,3.82,3.82,0,0,1,1.79-.53h.06l.07,0a1.92,1.92,0,0,1,1.25,1.25,2.54,2.54,0,0,1-.1,1.92l-.9-.48a1.47,1.47,0,0,0,.05-1.08,1,1,0,0,0-.5-.61,2.9,2.9,0,0,0-1.19.37,4.25,4.25,0,0,0-1.1,1.11l-.84,1.24-.09-1.5a3.43,3.43,0,0,0-.45-1.73,1,1,0,0,0-.81.05.71.71,0,0,0-.37.32,4.55,4.55,0,0,1,0,3.29,15.93,15.93,0,0,0-.4,1.83,4.61,4.61,0,0,0,.2,2.78Z"/><path fill="#99b1da" d="M2711.25,927.34a6,6,0,0,1,.88-3.48,3.47,3.47,0,0,1,2-1.43,4.31,4.31,0,0,0,.09-.79,2.83,2.83,0,0,0-.26-1.13.93.93,0,0,1,.13-1,1.57,1.57,0,0,1,.82-.5,1.38,1.38,0,0,1,1.43.38,3.44,3.44,0,0,1,.45,1.36.78.78,0,0,1,.32-.18,1.89,1.89,0,0,1,.75-.09,1,1,0,0,1,1,.7l0,.12a5.93,5.93,0,0,1-.18,1.51l-.05.16a.94.94,0,0,0-.06.56,1,1,0,0,0,.12.24,3,3,0,0,1,.46,1.51l-1,0a2,2,0,0,0-.32-1,1.65,1.65,0,0,1-.25-.62,1.72,1.72,0,0,1,.09-1l0-.15a4.14,4.14,0,0,0,.13-1h-.27c0,.94-.19,1.43-.63,1.58a.88.88,0,0,1-.7,0,.81.81,0,0,1-.41-.48l0-.09v-.1a12.54,12.54,0,0,0,0-1.34,2.38,2.38,0,0,0-.29-1.05s0,0-.16,0a.72.72,0,0,0-.19,0,.58.58,0,0,0-.28.16,3,3,0,0,1,.35,1.47,4.64,4.64,0,0,1-.22,1.4l-.12.32h-.35a2.32,2.32,0,0,0-1.62,1.07,5,5,0,0,0-.69,2.82Z"/><path fill="#99b1da" d="M2710.7,921.33a3.41,3.41,0,0,0-.4-1,1.06,1.06,0,0,1-.17-.86,1.66,1.66,0,0,1,.92-1,1.32,1.32,0,0,1,1.75.23,3.55,3.55,0,0,1,.69,1.76l-1,.14a2.58,2.58,0,0,0-.48-1.27c-.12-.15-.39,0-.47,0-.4.21-.43.33-.43.33a4.85,4.85,0,0,1,.59,1.44Z"/><path fill="#99b1da" d="M2704.35,1029.07a4.34,4.34,0,0,1-1.69-.35c-3.44-1.4-3.25-7-2-10.45a30,30,0,0,1,5.62-8.73,8.19,8.19,0,0,1,5.28-2.53c2.35-.13,2.65,2.41,2.78,3.63a14.18,14.18,0,0,1-.59,4.62c-.13.54-.25,1.06-.34,1.53a14.33,14.33,0,0,0,.12,4.85c.28,1.87-.65,3.15-3.21,4.4a12.71,12.71,0,0,0-1.91,1.24A7.08,7.08,0,0,1,2704.35,1029.07Zm7.39-21h-.14a7.12,7.12,0,0,0-4.6,2.22,28.94,28.94,0,0,0-5.41,8.37c-1.06,3-1.34,8,1.45,9.17,1.89.77,3.21-.2,4.75-1.32a13.42,13.42,0,0,1,2.06-1.33c2.45-1.2,2.84-2.17,2.66-3.34a15.2,15.2,0,0,1-.12-5.18c.09-.49.22-1,.36-1.59a13.78,13.78,0,0,0,.57-4.27C2713.07,1008.51,2712.57,1008,2711.74,1008Z"/><path fill="#99b1da" d="M2726.3,1029.07a7.08,7.08,0,0,1-4-1.79,12.71,12.71,0,0,0-1.91-1.24c-2.56-1.25-3.49-2.53-3.21-4.4a14.33,14.33,0,0,0,.12-4.85c-.09-.47-.21-1-.34-1.53a14.18,14.18,0,0,1-.59-4.62c.13-1.22.41-3.76,2.78-3.63h0a8.19,8.19,0,0,1,5.28,2.53,30,30,0,0,1,5.62,8.73c1.23,3.5,1.42,9-2,10.45A4.34,4.34,0,0,1,2726.3,1029.07Zm-7.39-21c-.83,0-1.33.49-1.58,2.73a13.78,13.78,0,0,0,.57,4.27c.14.56.26,1.1.36,1.59a15.46,15.46,0,0,1-.12,5.18c-.18,1.17.21,2.14,2.66,3.34a13.42,13.42,0,0,1,2.06,1.33c1.54,1.12,2.86,2.09,4.74,1.32,2.8-1.13,2.52-6.14,1.46-9.17a29.08,29.08,0,0,0-5.41-8.37,7.12,7.12,0,0,0-4.6-2.22h-.14Z"/><path fill="#99b1da" d="M2716.54,1010.8c-.84-.71-.83-1.73-.81-3,0-.22,0-.45,0-.69v-2.72a.14.14,0,0,0-.11-.15,1.44,1.44,0,0,0-.62,0,.15.15,0,0,0-.1.15v2.73c0,.24,0,.47,0,.69,0,1.3,0,2.32-.81,3l-.65-.78c.45-.38.46-1,.44-2.23v-3.44a1.16,1.16,0,0,1,.86-1.13,2.27,2.27,0,0,1,1.13,0,1.16,1.16,0,0,1,.86,1.13v3.43c0,1.24,0,1.85.44,2.23Z"/><path fill="#99b1da" d="M2714,1014.19l-.89-.49c.1-.19,1-1.8,2.26-1.8s2.14,1.62,2.24,1.8l-.89.48c-.23-.41-.86-1.26-1.35-1.26S2714.18,1013.79,2714,1014.19Z"/><path fill="#99b1da" d="M2706.93,1071.93h-.71a1,1,0,0,1-1-.91,17.48,17.48,0,0,1,.05-4.44c.76-3.75,2.39-5.93,4.7-6.31s2.63-1.16,3.08-2.43l.15-.4a5.71,5.71,0,0,0-.8-4.48,7.65,7.65,0,0,1-1.57-4.56v-2.61a1.1,1.1,0,0,1,1.17-1.06h.8a1.05,1.05,0,0,1,1.06,1v.11c0,.51.1,1.28.19,2.17a4,4,0,0,0,1.65,2.7,6.53,6.53,0,0,1,4.93-.62,5.68,5.68,0,0,1,4,3.21,9.79,9.79,0,0,1,.25,7.79c-1.49,3.15-4.51,6.78-8.54,7.55-4.54.86-6.37-.57-7-1.22a.68.68,0,0,0-.46-.28,1.23,1.23,0,0,0-.75.43,9.82,9.82,0,0,0-.23,3.35,1,1,0,0,1-.28.72A1,1,0,0,1,2706.93,1071.93Zm5.07-26.19c-.07,0-.15,0-.15,0v2.61a6.55,6.55,0,0,0,1.37,4,6.7,6.7,0,0,1,.93,5.42l-.14.4c-.49,1.33-.94,2.59-3.88,3.08-2.35.38-3.4,3.21-3.87,5.51a17.49,17.49,0,0,0,0,4.14h.71c-.1-3.46.35-3.91.52-4.08a2.06,2.06,0,0,1,1.49-.72,1.62,1.62,0,0,1,1.19.62c.36.41,1.86,1.67,6,.89,3.65-.69,6.43-4.06,7.82-7a8.85,8.85,0,0,0-.25-6.91,4.73,4.73,0,0,0-3.27-2.67h0c-2.89-.63-4.32.58-4.38.63l-.28.24-.31-.18a5.2,5.2,0,0,1-2.41-3.66c-.09-.9-.15-1.67-.19-2.19v-.11Z"/><path fill="#99b1da" d="M2726.26,895.48a2.51,2.51,0,0,1-2-1A2.11,2.11,0,0,1,2722,894a2.08,2.08,0,0,1-2.11.25,4.94,4.94,0,0,1-3.2-.66A4,4,0,0,0,2714,893a5.83,5.83,0,0,1-1.93-.11,3.2,3.2,0,0,1-2.23-1.32,3.24,3.24,0,0,1-1.9-.32,1,1,0,0,0-.68-.16,10.39,10.39,0,0,1-1.14-.09,2.24,2.24,0,0,1-1.73-1.38,3.42,3.42,0,0,1-.44,0,2.47,2.47,0,0,1-.51-4.89v0a2.05,2.05,0,0,1,1.33-1.93v-.07a2.06,2.06,0,0,1,2-2.06,2.09,2.09,0,0,1,2.25-1.17,2,2,0,0,1,1.86-1.18,2.09,2.09,0,0,1,1.28.44,2.12,2.12,0,0,1,2.61,0,2.34,2.34,0,0,1,1.78-.81,2.39,2.39,0,0,1,2.19,1.46,2.16,2.16,0,0,1,1.12-.3,2.22,2.22,0,0,1,2,1.23,1.94,1.94,0,0,1,.71-.13,2,2,0,0,1,1.87,1.19,2.07,2.07,0,0,1,2.27,2.05v0a2.07,2.07,0,0,1,1.8,2,2,2,0,0,1-.16.79,2,2,0,0,1,.61,1.46,2.12,2.12,0,0,1-.26,1,2.05,2.05,0,0,1-.17,3,2.55,2.55,0,0,1,.3,1.18A2.5,2.5,0,0,1,2726.26,895.48Zm-1.62-2.5.26.59a1.48,1.48,0,0,0,2.84-.59,1.52,1.52,0,0,0-.37-1l-.46-.52.64-.27a1.07,1.07,0,0,0,.63-1,1.05,1.05,0,0,0-.51-.9l-.55-.33.45-.46a1,1,0,0,0,.31-.74,1.05,1.05,0,0,0-.51-.9l-.47-.28.32-.45a1,1,0,0,0,.21-.62,1.06,1.06,0,0,0-1-1.06,1.41,1.41,0,0,0-.25,0l-1,.22.37-.9a1.1,1.1,0,0,0,.08-.4,1,1,0,0,0-1.42-1l-.57.21-.1-.59a1.06,1.06,0,0,0-1-.87,1,1,0,0,0-.67.26l-.71.6-.13-.92a1.2,1.2,0,0,0-1.18-1,1.17,1.17,0,0,0-1,.58l-1.05,1.69.12-2.08a1.36,1.36,0,0,0-2.62-.49l-.42,1-.5-1a1.09,1.09,0,0,0-1.8-.13l-.41.6-.42-.6a1,1,0,0,0-.86-.45,1,1,0,0,0-1,.89l-.11.68-.62-.31a1.06,1.06,0,0,0-1.5.71l-.1.48-.48-.08a1.07,1.07,0,0,0-1.23,1,1,1,0,0,0,.06.31l.18.59-.62.06a1,1,0,0,0-.89,1.37l.24.7-.74,0a1.49,1.49,0,0,0-1.52,1.45,1.46,1.46,0,0,0,1.46,1.46,1.42,1.42,0,0,0,.57-.12l1.28-.55-.54,1.08a1.27,1.27,0,0,0,1,1,10.19,10.19,0,0,0,1,.08,1.91,1.91,0,0,1,1.24.34,3.17,3.17,0,0,0,1.59.11l.54-.07,0,.54h0s.16.58,1.62.91a4.91,4.91,0,0,0,1.63.08,5.09,5.09,0,0,1,3.26.73,4,4,0,0,0,2.46.58l.15-.25.43.25a1,1,0,0,0,1.42-.35l.51-.83.39.89a1,1,0,0,0,1,.64,1,1,0,0,0,.64-.23Z"/><path fill="#99b1da" d="M2718.82,901h-2.94v-.51c0-1-.92-2-1.89-3.14a17.07,17.07,0,0,1-1.56-2,6.12,6.12,0,0,1-1.26-3.17l1,0a5.64,5.64,0,0,0,1.1,2.61,16.23,16.23,0,0,0,1.47,1.84,7.73,7.73,0,0,1,2.09,3.3h1v-1.7a2.64,2.64,0,0,1,1-1.76l.64.78c-.22.18-.65.64-.65,1Z"/><path fill="#99b1da" d="M2720,897.47a7,7,0,0,1-4.42-1.72,12.58,12.58,0,0,1-2.48-3l.88-.5a11.56,11.56,0,0,0,2.23,2.73,5.84,5.84,0,0,0,4.21,1.49,3.21,3.21,0,0,0,3.12-2.56l1,.21a4.22,4.22,0,0,1-4,3.36Z"/><path fill="#99b1da" d="M2710.3,882a1.92,1.92,0,0,1-1.48-2.12l1,.17-.5-.08.5.08c0,.12-.06.73.78,1Z"/><path fill="#99b1da" d="M2705,889.28l-.83-.57a3.12,3.12,0,0,1,2.68-1.27l0,1A2.17,2.17,0,0,0,2705,889.28Z"/><path fill="#99b1da" d="M2705.44,887a3.41,3.41,0,0,1-1.88-1.58l.9-.47-.45.23.45-.23a2.39,2.39,0,0,0,1.25,1.08Z"/><path fill="#99b1da" d="M2709.78,891.43a2.67,2.67,0,0,1,.25-2.26,3,3,0,0,1,2-1.16l.09,1a1.9,1.9,0,0,0-1.28.71,1.68,1.68,0,0,0-.14,1.35Z"/><path fill="#99b1da" d="M2710.15,889.86a2.08,2.08,0,0,0-2-.31l-.42-.92a3.13,3.13,0,0,1,3,.41Z"/><path fill="#99b1da" d="M2718.34,892.6a5.8,5.8,0,0,1-2.26-1.05,6.19,6.19,0,0,0-1.52-.81,4.12,4.12,0,0,0-2.53,0l-.37-.94a5.08,5.08,0,0,1,3.22,0,6.47,6.47,0,0,1,1.77.94,4.91,4.91,0,0,0,1.91.89Z"/><path fill="#99b1da" d="M2714.79,890.7l-.38-.94a1,1,0,0,0,.5-.72,1.23,1.23,0,0,0-.41-1l.66-.77a2.28,2.28,0,0,1,.75,2A2,2,0,0,1,2714.79,890.7Z"/><path fill="#99b1da" d="M2717.36,890.44l-.93-.4a2.1,2.1,0,0,1,1.82-1.09l.13,1C2717.56,890.06,2717.37,890.42,2717.36,890.44Z"/><path fill="#99b1da" d="M2720.92,891.84a3.92,3.92,0,0,0-1.72-1.34,3.32,3.32,0,0,1-2-1.59,2.2,2.2,0,0,1,.16-1.75c.54-1.12,2-1,2.85-.78l-.29,1s-1.35-.36-1.64.25a1.15,1.15,0,0,0-.13.94c.14.36.59.69,1.43,1a4.85,4.85,0,0,1,2.2,1.74Z"/><path fill="#99b1da" d="M2723.39,890a4.42,4.42,0,0,1-2.32-.63,4.3,4.3,0,0,0-1.66-.67l.12-1a5.17,5.17,0,0,1,2.09.82,3.57,3.57,0,0,0,2,.46l.09,1Z"/><path fill="#99b1da" d="M2724.27,892.52l-1-.21a1.1,1.1,0,0,0-.24-.84,1,1,0,0,0-.8-.34l-.1-1a2,2,0,0,1,1.67.69A2.12,2.12,0,0,1,2724.27,892.52Z"/><path fill="#99b1da" d="M2725.38,892a.93.93,0,0,0-.68-.32,1,1,0,0,0-.67.15l-.81-.61a1.66,1.66,0,0,1,1.52-.55,1.91,1.91,0,0,1,1.42.69Z"/><path fill="#99b1da" d="M2725.25,892.26a2.43,2.43,0,0,1,2-2.7l.16,1-.08-.5.08.5a1.43,1.43,0,0,0-1.19,1.62Z"/><path fill="#99b1da" d="M2714.51,881.38a2.29,2.29,0,0,1-.21-2l.94.38a1.24,1.24,0,0,0,.14,1.05Z"/><path fill="#99b1da" d="M2717.32,882.52l-.42-.92a1.49,1.49,0,0,0,1-1.27h1A2.49,2.49,0,0,1,2717.32,882.52Z"/><path fill="#99b1da" d="M2725.39,889.66c-.1-.51-.46-.66-1.4-.91a6.46,6.46,0,0,1-1.56-.57,2.12,2.12,0,0,1-1.11-2.6l.95.36-.47-.18.47.18a1.1,1.1,0,0,0,.65,1.36,6,6,0,0,0,1.34.48c.88.23,1.89.5,2.12,1.69Z"/><path fill="#99b1da" d="M2715.5,884.49l-.26-1h0s.18-.06.18-.16-.22-.35-1-.36a3.32,3.32,0,0,0-1.65.37l-.55-.85a4,4,0,0,1,2.21-.53c1.5,0,1.94.83,2,1.31A1.19,1.19,0,0,1,2715.5,884.49Z"/><path fill="#99b1da" d="M2713.17,886.81a2.15,2.15,0,0,1-.62-2.28c.41-.88,1.6-1.63,3.59-.87a4.46,4.46,0,0,1,2.22,1.51l-.86.54h0a3.73,3.73,0,0,0-1.73-1.1c-1.1-.43-2-.29-2.31.35-.18.39.26,1,.43,1.14Z"/><path fill="#99b1da" d="M2712.29,888.19a2.61,2.61,0,0,1,1.2-2.39,3,3,0,0,1,3,.42l-.61.81s-1.06-.79-1.88-.34a1.59,1.59,0,0,0-.68,1.43Z"/><path fill="#99b1da" d="M2711.22,884.51c0-.53-.12-.89-1.13-1.22-1.35-.43-1.61-1-1.66-1.22l.49-.14.47-.18s.17.31,1,.58a2.19,2.19,0,0,1,1.84,2.12Z"/><path fill="#99b1da" d="M2708.34,884a2.67,2.67,0,0,1-1.19-.27l.48-.89a1.84,1.84,0,0,0,2-.41l.67.76A3,3,0,0,1,2708.34,884Z"/><path fill="#99b1da" d="M2719.41,884.33l-.89-.47c0-.08,1.08-2,4.11-1.43l-.19,1C2720.18,883,2719.44,884.28,2719.41,884.33Z"/><path fill="#99b1da" d="M2721.21,883.32l-.33-1c.55-.19.68-.42.68-.5l1-.12C2722.63,882.13,2722.42,882.9,2721.21,883.32Z"/><path fill="#595959" d="M2725.07,885.28l-.37-.94a1.91,1.91,0,0,0,.86-.51l1,.34C2726.45,884.35,2726.21,884.83,2725.07,885.28Z"/><path fill="#99b1da" d="M2709.56,887.93l-.24-1c.22-.05.82-.2.95-.43a.4.4,0,0,0,0-.32l-.05-.1a2.61,2.61,0,0,0-.68,0c-.29,0-.65,0-1.07,0a2.86,2.86,0,0,1-1.77-.49l.65-.77a2.46,2.46,0,0,0,1.16.25c.39,0,.72,0,1,0,.72,0,1.45-.06,1.73.82a1.35,1.35,0,0,1-.07,1.12A2.33,2.33,0,0,1,2709.56,887.93Z"/><path fill="#d1dbed" d="M2649.12,880a.89.89,0,1,1-.89-.89A.89.89,0,0,1,2649.12,880Z"/><rect width="52.2" height=".38" x="2648.23" y="879.79" fill="#d1dbed"/><path fill="#d1dbed" d="M2649.12,930.12a.89.89,0,1,1-.89-.89A.89.89,0,0,1,2649.12,930.12Z"/><rect width="52.2" height=".38" x="2648.23" y="929.94" fill="#d1dbed"/><path fill="#d1dbed" d="M2649.12,1059.22a.89.89,0,1,1-.89-.89A.89.89,0,0,1,2649.12,1059.22Z"/><rect width="52.2" height=".38" x="2648.23" y="1059.03" fill="#d1dbed"/><path fill="#d1dbed" d="M2649.12,1100.54a.89.89,0,1,1-.89-.89A.89.89,0,0,1,2649.12,1100.54Z"/><rect width="48.44" height=".38" x="2648.23" y="1100.35" fill="#d1dbed"/><path fill="#d1dbed" d="M2649.12,976.51a.89.89,0,1,1-.89-.9A.89.89,0,0,1,2649.12,976.51Z"/><rect width="48.44" height=".38" x="2648.23" y="976.32" fill="#d1dbed"/><path fill="#d1dbed" d="M2649.12,1018a.89.89,0,1,1-.89-.89A.89.89,0,0,1,2649.12,1018Z"/><rect width="45.31" height=".38" x="2648.23" y="1017.85" fill="#d1dbed"/><rect width="55.6" height="3.94" x="2738.88" y="882.45" fill="#b5cae8" rx=".44"/><rect width="38.84" height="3.7" x="2739" y="889.63" fill="#b5cae8" rx=".41"/><rect width="55.6" height="3.94" x="2738.52" y="924.92" fill="#b5cae8" rx=".44"/><rect width="38.84" height="3.7" x="2738.63" y="932.1" fill="#b5cae8" rx=".41"/><rect width="55.6" height="3.94" x="2738.83" y="966.75" fill="#b5cae8" rx=".44"/><rect width="38.84" height="3.7" x="2738.94" y="973.93" fill="#b5cae8" rx=".41"/><rect width="55.6" height="3.94" x="2739.13" y="1009.2" fill="#b5cae8" rx=".44"/><rect width="38.84" height="3.7" x="2739.25" y="1016.38" fill="#b5cae8" rx=".41"/><rect width="55.6" height="3.94" x="2738.48" y="1051.47" fill="#b5cae8" rx=".44"/><rect width="38.84" height="3.7" x="2738.59" y="1058.65" fill="#b5cae8" rx=".41"/><rect width="55.6" height="3.94" x="2738.71" y="1093.84" fill="#b5cae8" rx=".44"/><rect width="38.84" height="3.7" x="2738.83" y="1101.02" fill="#b5cae8" rx=".41"/><polygon fill="#fff" points="2122.21 1037.3 2088.67 971.84 2092.27 969.99 2123.47 1030.89 2188.76 975.19 2191.39 978.27 2122.21 1037.3"/><path fill="#6fc183" d="M2102.15,943.65s-6.33,12.21-2,17.45,18.19,16.85,37.43,13.95,50.37-19.1,52-22.84l2.08,24.52s-70.14,58.62-68.9,57.37-32.79-60.69-32.79-60.69Z"/><path fill="#eaeaea" d="M2072.21,956.36l-43.58,93.53,18.67,23.7L2007.46,1126s10,354.17,10,328-14.94-333-14.94-333l32.37-46.14-13.69-28.69Z"/><polygon fill="#eaeaea" points="2224.11 948.88 2251.5 1053.64 2216.64 1071.1 2266.44 1127.21 2221.62 1330.49 2277.65 1127.21 2226.6 1073.59 2265.2 1054.88 2224.11 948.88"/><rect width="93.72" height="39.17" x="2215.58" y="1095.2" fill="#ddd" rx=".71" transform="rotate(-4.84 2263.662 1115.3)"/><path fill="#2f4171" d="M3399.36,1554.56c-3.11-4.13-34.43-13.07-37.67,9.09s-4.7,60.32-19,87.45-89.67,83.72-99.22,101.8,12.17,40.82,18.62,52.75,15.57,39.34,7.26,50.54-37.17,14.87-44.34,24.16.91,25.1,32.2,38.29,58.17,24.82,78.58,11.69,36.55-93.31,36.55-93.31l33.63-107.42,17.86-115.46Z"/><path fill="#5e5e5e" d="M3257.18,1918.64c-2.37-1-4.59-2-6.7-3,15.95-30.28,52-79,116.35-70.2q-.67,10.3-1.39,20.26c-6.6,24.4-17.37,56.75-29.68,64.67C3315.35,1943.46,3288.48,1931.83,3257.18,1918.64Z"/><path fill="#5e5e5e" d="M3392.66,1667.33v0c-1.47,8.05-3.17,15.61-5,22.74L3354,1658.43c.27-.48.58-1,.83-1.44a123.58,123.58,0,0,0,9.05-22.92l29.62,28C3393.25,1663.8,3393,1665.59,3392.66,1667.33Z"/><path fill="#5e5e5e" d="M3374.88,1727.66l-43.9-41.41a220.14,220.14,0,0,0,16.42-18.18l36.6,34.52C3381.18,1711.58,3378.1,1719.89,3374.88,1727.66Z"/><path fill="#99b1da" d="M3358.77,1762.06l-54-51c6.18-5.63,12.26-11.24,18-16.73l47.27,44.59C3366.27,1747.11,3362.47,1754.75,3358.77,1762.06Z"/><path fill="#99b1da" d="M3342.5,1796.28,3278,1735.43c5.39-5,11.09-10.16,16.37-14.93.59-.55,1.19-1.08,1.79-1.63l57.19,54C3349.38,1780.75,3345.65,1788.51,3342.5,1796.28Z"/><path fill="#243354" d="M3310.05,1868.26c5-61.15,40.6-88.11,72.55-170.85,24-62.09,10.32-121.94,2-147.94,7.11.76,13.43,3.35,14.74,5.09l24.44,59.58-17.86,115.46L3372.31,1837s-16.15,80.18-36.55,93.31c-8,5.14-17,6.47-26.82,5.42A483,483,0,0,1,3310.05,1868.26Z"/><path d="M3397.89,1552.84s18,40.55,11.1,97.44c-10.51,86.78-48,124.62-59.07,166.41s-7.27,78-10.9,94.76-9.56,20.91-11.61,22.63c7,6.11,45.28,14.08,50,10.23s18.2-24,24-65.23-5.37-40.21,2.54-80.5,31.39-87.08,33.91-116.76,3.92-72.29-13.42-100.54A84.88,84.88,0,0,0,3397.89,1552.84Z"/><path fill="#e0e0e0" d="M3377.42,1944.31c-2,1.64-10.14,1.13-19.32-.46,7.51-8,13.71-20.8,15-42.2,3.08-51.81,8.37-61.9,17.76-94.49,3.85-13.41,13.25-29.86,23-44.59a303.89,303.89,0,0,0-9.89,36c-7.91,40.29,3.23,39.28-2.54,80.5S3382.16,1940.47,3377.42,1944.31Z"/><path fill="#5e5e5e" d="M3408.57,1876.62c0-.1,0-.2,0-.3,2.9-22.52,1.64-31.94,0-43.88-.31-2.29-.63-4.71-.94-7.37a7,7,0,0,0-7.48-5.83,6.11,6.11,0,0,0-6,6.67c.32,2.72.65,5.2,1,7.56,1.54,11.51,2.66,19.83,0,40.85-.45,3.42,2.21,6.63,5.92,7.19A6.42,6.42,0,0,0,3408.57,1876.62Z"/><path fill="#5e5e5e" d="M3405.06,1897.25a6.61,6.61,0,0,0-5.35-7.38,6.49,6.49,0,0,0-8,4.59c-4.85,22.21-11.51,34.69-15,40.14a6.16,6.16,0,0,0,2.43,8.67,6.92,6.92,0,0,0,9.26-1.88c4-6.12,11.39-20,16.64-43.93Z"/><path d="M3355.56,1874.43c-2.51,36.55-3.24,55.55-18.84,64.1-4.26-1.47-7.66-3-9.31-4.45,2.05-1.72,8-5.86,11.61-22.63s-.16-53,10.9-94.76,48.56-79.63,59.07-166.41c6.89-56.89-11.1-97.44-11.1-97.44a65.19,65.19,0,0,1,8,6.07c6.34,15.59,13.85,43.1,12,83.57-3.09,67.69-22,105.31-36.52,131.08S3358.35,1833.68,3355.56,1874.43Z"/><path d="M3368.25,1552.48c10.27-6.91,28.76-1,31.11,2.08l3.83,9.36C3383.7,1563.7,3373.45,1557.67,3368.25,1552.48Z"/><path fill="#3d5891" d="M3243.44,1752.9c9.3-17.6,80.91-71.69,97.93-99.57,3.7,7.59,0,18.73-5.28,29.41-7.31,14.89-65.31,75.55-88.42,100.53C3242.1,1773.37,3238.38,1762.49,3243.44,1752.9Z"/><path d="M3317,1694.32a6.32,6.32,0,0,0,8.47-.4,5.35,5.35,0,0,0-.79-7.89,6.33,6.33,0,0,0-8.49.41A5.34,5.34,0,0,0,3317,1694.32Z"/><path d="M3304.55,1707.78a6.32,6.32,0,0,0,8.48-.41,5.33,5.33,0,0,0-.79-7.88,6.32,6.32,0,0,0-8.49.4A5.36,5.36,0,0,0,3304.55,1707.78Z"/><path d="M3292.07,1721.23a6.32,6.32,0,0,0,8.49-.4,5.35,5.35,0,0,0-.8-7.89,6.31,6.31,0,0,0-8.49.41A5.34,5.34,0,0,0,3292.07,1721.23Z"/><path d="M3279.58,1734.69a6.35,6.35,0,0,0,8.5-.41,5.34,5.34,0,0,0-.8-7.88,6.32,6.32,0,0,0-8.49.4A5.35,5.35,0,0,0,3279.58,1734.69Z"/><path d="M3267.11,1748.14a6.32,6.32,0,0,0,8.48-.4,5.35,5.35,0,0,0-.79-7.89,6.35,6.35,0,0,0-8.5.41A5.34,5.34,0,0,0,3267.11,1748.14Z"/><path d="M3254.63,1761.6a6.32,6.32,0,0,0,8.47-.4,5.35,5.35,0,0,0-.79-7.9,6.33,6.33,0,0,0-8.49.41A5.35,5.35,0,0,0,3254.63,1761.6Z"/><path fill="#fff" d="M3245.35,1742.83l14.51,11.68a3.12,3.12,0,0,1,1.19,3,3,3,0,0,1-.73,1.45,3.55,3.55,0,0,1-4.77.23l-14.16-11.41C3242.47,1746.25,3243.8,1744.6,3245.35,1742.83Z"/><path fill="#fff" d="M3272.35,1741.06a3.14,3.14,0,0,1,1.18,3,3,3,0,0,1-.73,1.45,3.56,3.56,0,0,1-4.77.23l-14.39-11.6q2.19-2.16,4.57-4.45Z"/><path fill="#fff" d="M3284.83,1727.6a3.12,3.12,0,0,1,1.18,3,2.9,2.9,0,0,1-.73,1.45,3.54,3.54,0,0,1-4.76.23L3267,1721.4l4.73-4.32Z"/><path fill="#fff" d="M3297.32,1714.15a3.13,3.13,0,0,1,1.17,3,2.85,2.85,0,0,1-.72,1.45,3.56,3.56,0,0,1-4.77.22l-12.26-9.86.71-.64,4.05-3.67Z"/><path fill="#fff" d="M3309.79,1700.7a3.08,3.08,0,0,1,1.18,3,2.85,2.85,0,0,1-.73,1.46,3.56,3.56,0,0,1-4.77.22l-11-8.87q2.39-2.18,4.72-4.34Z"/><path fill="#fff" d="M3322.27,1687.24a3.12,3.12,0,0,1,1.19,3,2.92,2.92,0,0,1-.74,1.45,3.55,3.55,0,0,1-4.77.23l-10-8c1.55-1.49,3.09-3,4.59-4.42Z"/><path fill="#f5b0a6" d="M2079.41,777.94s-18.94,87.46,15.09,115.11,72.67,18,92.47,3.14,26.41-36.47,26.41-36.47,23.32,4,28.44-15.91c5.45-19.32-5.75-45-32.39-28.57C2214.68,756,2108.9,696.83,2079.41,777.94Z"/><path d="M2102.54,820.65a4.66,4.66,0,1,1-4.66-4.67A4.66,4.66,0,0,1,2102.54,820.65Z"/><ellipse cx="2153.31" cy="824.99" fill="#fff" rx="8.84" ry="16.85" transform="rotate(-87.17 2153.283 824.996)"/><ellipse cx="2151.07" cy="824.49" rx="7.43" ry="7.44"/><path fill="#fff" d="M2114.32,823.39c-.22,4.88-7.27,8.46-15.74,8s-15.17-4.79-14.95-9.66,7.26-8.46,15.74-8S2114.54,818.51,2114.32,823.39Z"/><ellipse cx="2095.77" cy="822.06" rx="6.78" ry="7.44"/><path d="M2144.28,805.71c7.55-.13,22.59,2.77,29.55,6C2172.68,807,2154,800,2144.28,805.71Z"/><path d="M2084.85,803.44c6.42-1.17,19.67-.82,26.07,1C2109.27,800.51,2092.3,797.22,2084.85,803.44Z"/><path d="M2118.42,821.58c-.64,5.19-1.24,10.37-1.73,15.57a16.61,16.61,0,0,1-.86,5c-.72,1.81-1.36,1.93-2.51,3.43a8.15,8.15,0,0,0-1.5,3.24c-1.51,7.11,5.9,9.58,11.6,9.45a1.63,1.63,0,0,0,.43-3.19c-3.49-1.22-11.09-.55-8.47-6.74,1-2.26,2.86-3.21,3.35-5.62,1.36-6.69,1-14.28,1.33-21.1.05-1.08-1.52-1-1.64,0Z"/><path d="M2131.6,695.37c-18.56,5.92-24.46,36.34-12.37,52.4,0,0,42.41-4.59,26.36,21.81s14.91,47.29,33.25,41.55,42.4,22.75,14.89,58.34,45.85,37.88,6.88,102.17c0,0-25.14,36.36,4.38,53.26s50.62-27,90.26-11.83,46.4,52.38,46.4,52.38,32.06-50.69-5.9-76.89-46.4-24.5-25.31-74.35-52.3-27.88-31.21-70.13,11-93.79-35.43-106.46C2203.32,726.56,2214.15,669.06,2131.6,695.37Z"/><path d="M2345,1073.34a97.48,97.48,0,0,0,7-15c.94-2.59,1.79-5.21,2.53-7.86a79.41,79.41,0,0,0,1.74-8,57.47,57.47,0,0,0,.43-16.35,39.64,39.64,0,0,0-16-27.26c-2.13-1.64-4.47-3.15-6.75-4.69l-6.91-4.56c-4.6-3-9.25-6.06-13.69-9.46a49.67,49.67,0,0,1-6.29-5.7,21.52,21.52,0,0,1-5.92-16,45.72,45.72,0,0,1,1.17-8.46,122.94,122.94,0,0,1,5.06-16c1-2.59,2-5.17,3.06-7.73s2.16-5.13,3.09-7.63a44.09,44.09,0,0,0,2.14-7.7,24.08,24.08,0,0,0,.2-7.75,15.88,15.88,0,0,0-2.78-7,21.85,21.85,0,0,0-5.59-5.28c-4.37-3-9.47-5-14.51-7.4a59.24,59.24,0,0,1-7.48-4.06,20.24,20.24,0,0,1-6.33-6.3,15.33,15.33,0,0,1-2.09-8.87,28.36,28.36,0,0,1,2-8.55c.5-1.34,1.09-2.65,1.71-3.92l1.77-3.71c1.13-2.47,2.18-5,3.11-7.53a98.13,98.13,0,0,0,4.31-15.68,83,83,0,0,0-.13-32.29,65,65,0,0,0-5.23-15.27,58.06,58.06,0,0,0-9-13.32,60.14,60.14,0,0,0-27.18-16.82c-1.27-.39-2.63-.84-4-1.28a35.59,35.59,0,0,1-4-1.57,15.3,15.3,0,0,1-1.91-.93l-1.88-1c-1.21-.74-2.41-1.5-3.57-2.31A68.19,68.19,0,0,1,2221,728.52c-3.58-4.26-6.88-8.68-10.45-12.84a63.54,63.54,0,0,0-12-11,43.5,43.5,0,0,0-14.88-6.35,63.72,63.72,0,0,0-16.32-1.26c-2.74.23-5.49.36-8.2.8-1.36.21-2.74.34-4.09.61l-4.06.78c-1.36.23-2.69.56-4,.88l-4,.95c-2.67.71-5.32,1.48-8,2.22a136.3,136.3,0,0,1,32.34-7.13,64.48,64.48,0,0,1,16.63.91,44.76,44.76,0,0,1,15.54,6.21A64.16,64.16,0,0,1,2212,714.43c3.68,4.17,7.06,8.56,10.64,12.7a65.72,65.72,0,0,0,11.86,11.08c1.11.76,2.26,1.46,3.41,2.14l1.79.92a13.74,13.74,0,0,0,1.82.86,35.25,35.25,0,0,0,3.75,1.42c1.28.4,2.55.8,3.92,1.2a66.06,66.06,0,0,1,15.49,6.66,58.81,58.81,0,0,1,13.1,10.69,60.32,60.32,0,0,1,9.57,13.95,67.52,67.52,0,0,1,5.55,16,86.15,86.15,0,0,1,.31,33.52,99.75,99.75,0,0,1-4.39,16.23c-.94,2.65-2,5.24-3.17,7.79l-1.78,3.78q-.89,1.81-1.59,3.66a25.11,25.11,0,0,0-1.78,7.52,12,12,0,0,0,1.59,7,17,17,0,0,0,5.32,5.27,54.64,54.64,0,0,0,7,3.86c4.92,2.35,10.15,4.45,14.92,7.72a25,25,0,0,1,6.33,6.08,19.05,19.05,0,0,1,3.29,8.29,27.13,27.13,0,0,1-.26,8.73,47.42,47.42,0,0,1-2.31,8.22c-1,2.67-2.12,5.17-3.17,7.71s-2.07,5.09-3.06,7.65a124.67,124.67,0,0,0-5,15.55,44.13,44.13,0,0,0-1.21,7.92,20.12,20.12,0,0,0,1,7.66c1.72,4.88,5.72,8.73,9.92,12.11s8.86,6.44,13.42,9.55l6.85,4.66c2.28,1.58,4.56,3.09,6.79,4.85A43.21,43.21,0,0,1,2353,1010a42.76,42.76,0,0,1,5,16,58.42,58.42,0,0,1-.8,16.65A92,92,0,0,1,2345,1073.34Z"/><path d="M2123.83,740.64a70.32,70.32,0,0,1,11.79,0,34.89,34.89,0,0,1,11.62,2.82,13.89,13.89,0,0,1,5,3.79,10.28,10.28,0,0,1,2.21,6.14,16,16,0,0,1-1.18,6.27,33,33,0,0,1-2.73,5.52l-1.41,2.46c-.44.82-.81,1.68-1.22,2.51s-.67,1.71-1,2.58l-.37,1.32a8.44,8.44,0,0,0-.31,1.32,22.58,22.58,0,0,0,.26,10.66,26.12,26.12,0,0,0,4.9,9.47,32.13,32.13,0,0,0,8.17,7.06,30.67,30.67,0,0,0,10,3.93,24.12,24.12,0,0,0,5.19.48l1.27-.06,1.25-.17a9.76,9.76,0,0,0,1.22-.25l1.47-.32a18.17,18.17,0,0,1,6.93-.25,22.2,22.2,0,0,1,6.51,2.07,27.4,27.4,0,0,1,5.51,3.8,30.64,30.64,0,0,1,4.34,5,33,33,0,0,1,5,11.93,40.2,40.2,0,0,1,.47,12.75,49.74,49.74,0,0,1-3.14,12.17,60.9,60.9,0,0,1-5.69,11c-.53.89-1.14,1.71-1.73,2.54s-1.17,1.69-1.82,2.47l-3.65,4.57a25.24,25.24,0,0,0-4.66,9.13,16,16,0,0,0,.79,9.59,50.53,50.53,0,0,0,5.33,9.56c4.26,6.37,9.2,13,12.14,20.84a42.66,42.66,0,0,1,2.75,12.24,46.09,46.09,0,0,1-.93,12.43,73.84,73.84,0,0,1-9.24,22.36c-.5.86-1,1.7-1.58,2.54s-1.07,1.68-1.64,2.52-1.12,1.72-1.72,2.47-1.1,1.53-1.62,2.32a72.34,72.34,0,0,0-5.56,10,53.09,53.09,0,0,0-3.72,10.78,35.41,35.41,0,0,0-.69,11.29,26,26,0,0,0,3.78,10.67,30.75,30.75,0,0,0,8,8.38,31.15,31.15,0,0,1-8.84-7.79,27.28,27.28,0,0,1-4.81-11,35.7,35.7,0,0,1,0-12.07,56,56,0,0,1,3.22-11.61,74,74,0,0,1,5.33-10.78c.52-.87,1.06-1.72,1.62-2.57s1-1.62,1.52-2.43,1-1.62,1.45-2.46,1-1.67,1.4-2.52c3.62-6.74,6.61-13.83,7.89-21.14a38.62,38.62,0,0,0-2.16-21.48,57,57,0,0,0-5.26-9.8c-2.07-3.18-4.37-6.28-6.66-9.56a52.93,52.93,0,0,1-6.14-10.86,24.12,24.12,0,0,1-1.59-6.57,21.77,21.77,0,0,1,.45-6.88,31.59,31.59,0,0,1,5.78-11.71l3.64-4.64c.61-.72,1.1-1.51,1.65-2.27s1.08-1.52,1.56-2.31a48.76,48.76,0,0,0,7.94-20.26,33.37,33.37,0,0,0-.3-10.61,27.71,27.71,0,0,0-3.9-9.62,23.43,23.43,0,0,0-3.28-3.93,21,21,0,0,0-4.06-2.94,14,14,0,0,0-9.33-1.5l-.58.1-.82.18a16.26,16.26,0,0,1-1.67.3l-1.66.18-1.66.05a28.26,28.26,0,0,1-6.46-.75,36,36,0,0,1-11.61-5,36.73,36.73,0,0,1-9.22-8.54,29.38,29.38,0,0,1-5.35-11.45,26.69,26.69,0,0,1,.27-12.6,34.06,34.06,0,0,1,5.28-11.12,29.84,29.84,0,0,0,2.77-4.82,13.24,13.24,0,0,0,1.31-5.12,7.78,7.78,0,0,0-1.39-4.79,12.22,12.22,0,0,0-4.06-3.49,33.92,33.92,0,0,0-10.88-3.48A69.58,69.58,0,0,0,2123.83,740.64Z"/><path fill="#fff" d="M2115.65,869.38s18,2.49,23,.62-1.87,12.47-9.34,11.85S2115.65,869.38,2115.65,869.38Z"/><path d="M2129.82,882.88a5.24,5.24,0,0,1-.56,0c-7.93-.66-14.24-12.51-14.51-13l-.91-1.74,1.95.27c4.95.68,18.65,2.14,22.54.68a2.14,2.14,0,0,1,2.53.35c1.14,1.26.17,3.76-.52,5.14C2138.32,878.65,2134.22,882.88,2129.82,882.88Zm-12.26-12.23c2,3.2,6.7,9.76,11.87,10.19,3,.25,6-2.47,7.86-5.1,1.71-2.46,2.15-4.31,2.08-4.88a1.88,1.88,0,0,0-.33.09C2134.86,872.52,2122.5,871.24,2117.56,870.65Z"/><path fill="#243354" d="M2218.48,1026a3.44,3.44,0,0,1-.77-.09,3.33,3.33,0,0,1-2.47-4c6.81-28.83,5.45-51.13-4-66.31-8.27-13.21-19.71-15.9-20.2-16a3.34,3.34,0,0,1,1.41-6.52c.58.13,14.49,3.25,24.31,18.79,10.58,16.75,12.26,40.83,5,71.59A3.34,3.34,0,0,1,2218.48,1026Z"/><path fill="#243354" d="M2212.06,1135.91a3.33,3.33,0,0,1-3-4.68c.33-.75,32.57-75.43,8.74-101.26a12.33,12.33,0,0,0-10.77-4.23c-21.7,1.9-55.46,47.53-66.65,65a3.33,3.33,0,1,1-5.6-3.61c1.71-2.67,42.29-65.41,71.66-68a18.83,18.83,0,0,1,16.25,6.35c26.77,29-6.12,105.24-7.53,108.47A3.34,3.34,0,0,1,2212.06,1135.91Z"/><path fill="#243354" d="M2152.41,1095.58H2126.7a3.34,3.34,0,0,1,0-6.67h25.71a3.34,3.34,0,1,1,0,6.67Z"/><path fill="#243354" d="M2215.85,1146.88a3.32,3.32,0,0,1-2.84-1.59l-13.45-22a3.33,3.33,0,1,1,5.68-3.49l13.45,22a3.34,3.34,0,0,1-1.1,4.59A3.23,3.23,0,0,1,2215.85,1146.88Z"/><path fill="#f5b0a6" d="M1689.14,1171.33s-47.5-30.82-66.68-33.72-80.07-10.56-72.44,0,24.77,14.81,28.58,20.32-97.85-14.21-113.72-3.4,62.27,30.57,62.27,30.57-10.09,10-8.86,21.86l1.23,11.84s-7.62,18.26,7.63,32,70.51,16.7,76.23,8.55-3.81-20.32-3.81-20.32,24.77,23.39,68.61,8.86C1687.21,1241.63,1689.14,1171.33,1689.14,1171.33Z"/><path fill="#f18a8b" d="M1639.59,1206.81c-37.21-4.69-52.64-35.62-53.27-36.94a2.14,2.14,0,1,1,3.85-1.88c.15.3,15.11,30.17,49.69,34.55a2.14,2.14,0,0,1-.27,4.27Z"/><path fill="#f18a8b" d="M1599.57,1241.22a1.84,1.84,0,0,1-.41,0l-72.42-14.08a2.15,2.15,0,1,1,.82-4.22l71.57,13.92c5-3.38,7.33-6.75,6.76-10-2.36-13.73-47.73-27-65-30.93a2.15,2.15,0,0,1,1-4.19c6.64,1.52,65,15.37,68.29,34.39.91,5.3-2.25,10.29-9.4,14.84A2.09,2.09,0,0,1,1599.57,1241.22Z"/><path fill="#7a8db0" d="M3073.47,2591.69c0,18.21-16.66,33-37.2,33H1683.83c-20.57,0-37.23-14.77-37.23-33v-77c0-18.21,16.66-33,37.23-33H3036.27c20.54,0,37.2,14.79,37.2,33Z"/><path fill="#243354" d="M1753.46,2549.76c0,21.07,14.15,38.22,31.57,38.22H2937.22c17.44,0,31.57-17.15,31.57-38.22l24.42-68H1726.83Z" opacity=".24"/><path fill="#2f4171" d="M2955.21,2541.32c0,18.44-13.68,33.44-30.54,33.44H1810.61c-16.84,0-30.52-15-30.52-33.44L1597,2117.73c0-18.47,13.65-33.45,30.52-33.45H3092.57c16.84,0,30.52,15,30.52,33.45Z"/><polygon fill="#243354" points="1666.35 2286.05 3055.24 2286.05 3041.19 2332.63 1685.12 2332.63 1666.35 2286.05" opacity=".24"/><path fill="#3d5891" d="M3079.76,2278.11c-7,18.5-26.61,33.23-44,33.23l-1353-.06c-17.39,0-37.56-14.73-45.22-33.21l-66-159.39c-9.2-22.34-1-40.82,18.67-40.82H3119.5c19.63,0,28.62,18.48,20.2,40.82Z"/><path fill="#5681bf" d="M3695,2081a37.24,37.24,0,0,1-37.21,37.28H1377.9a37.25,37.25,0,0,1-37.22-37.28v-46.6a37.23,37.23,0,0,1,37.22-37.28H3657.79a37.23,37.23,0,0,1,37.21,37.28Z"/><polygon fill="#f5b0a6" points="3194.53 1976.59 3326.89 1975.09 3275.25 1837.88 3211.34 1828.19 3194.53 1976.59"/><path fill="#2f4171" d="M3350.56,1607.31c-4-3.24-36.58-4.17-34.28,18.1s10.29,59.63,3.08,89.46-66.3,103.27-71.11,123.15,21.84,36.56,31,46.53,24.77,34.28,19.47,47.19-32.36,23.58-37,34.35,7.06,24.1,40.64,29.17,62.47,9.69,79-8.07,12.46-99.46,12.46-99.46l6.17-112.4L3388.91,1659Z"/><path fill="#3d5891" d="M3302.36,1995.26c-2.55-.39-5-.82-7.25-1.3,8-33.27,31-89.39,95.49-96.75q1.88,10.15,3.63,20c-.39,25.27-2.87,59.28-12.85,70C3364.83,2005,3335.93,2000.32,3302.36,1995.26Z"/><path fill="#243354" d="M3341.19,1933.38c-10.23-60.49,17.67-95.42,28.28-183.49,8-66.09-20-120.73-34.44-143.87,7.07-1,13.83-.07,15.53,1.29l38.35,51.71,11.1,116.31-6.17,112.4s4.09,81.7-12.46,99.46c-6.47,7-14.85,10.46-24.66,11.87A484.34,484.34,0,0,1,3341.19,1933.38Z"/><path d="M3348.72,1606s27.4,34.86,34.73,91.69c11.16,86.7-15.87,132.63-16.3,175.86s12.14,77.39,12.75,94.53-4.12,22.62-5.68,24.79c8.25,4.21,47.34,2.47,51-2.43s11.73-27.74,7.17-69.12-15.09-37.65-17.35-78.65,9-92.14,4.13-121.53-14-71-37.74-94.12A84.72,84.72,0,0,0,3348.72,1606Z"/><path d="M3425.2,1990.45c-1.55,2.09-9.54,3.6-18.84,4.33,5.3-9.65,8.17-23.55,4.14-44.6-9.76-51-7.12-62.06-6-96,.43-14,5.49-32.22,11.28-48.89a307.71,307.71,0,0,0-.72,37.34c2.26,41,12.8,37.27,17.35,78.65S3428.85,1985.56,3425.2,1990.45Z"/><path d="M3386.81,1928.12c6.57,36.05,10.54,54.64-2.47,66.78-4.5-.37-8.17-1-10.12-2,1.56-2.17,6.29-7.65,5.68-24.79s-13.18-51.29-12.75-94.53,27.46-89.16,16.3-175.86c-7.33-56.83-34.73-91.69-34.73-91.69a65.6,65.6,0,0,1,9.24,3.9c10,13.55,24,38.36,32.2,78,13.66,66.37,4.56,107.5-3.13,136.06S3379.5,1887.94,3386.81,1928.12Z"/><path d="M3319.9,1613c8.25-9.24,27.62-8.12,30.66-5.67l6,8.13C3337.63,1620,3326.21,1616.72,3319.9,1613Z"/><path fill="#3d5891" d="M3248.25,1838c4.69-19.36,60.78-89.45,70.41-120.68,5.46,6.45,4.57,18.17,2.12,29.81-3.42,16.24-44.7,89.35-61,119.26C3252,1858.19,3245.71,1848.56,3248.25,1838Z"/><path d="M3305.17,1763.08a6.32,6.32,0,0,0,8.11-2.48,5.35,5.35,0,0,0-2.7-7.45,6.33,6.33,0,0,0-8.13,2.49A5.33,5.33,0,0,0,3305.17,1763.08Z"/><path d="M3296.38,1779.21a6.33,6.33,0,0,0,8.12-2.49,5.34,5.34,0,0,0-2.71-7.45,6.33,6.33,0,0,0-8.13,2.49A5.36,5.36,0,0,0,3296.38,1779.21Z"/><path d="M3287.59,1795.32a6.33,6.33,0,0,0,8.13-2.48,5.35,5.35,0,0,0-2.72-7.45,6.33,6.33,0,0,0-8.13,2.49A5.34,5.34,0,0,0,3287.59,1795.32Z"/><path d="M3278.8,1811.45a6.32,6.32,0,0,0,8.13-2.5,5.32,5.32,0,0,0-2.71-7.43,6.33,6.33,0,0,0-8.13,2.48A5.35,5.35,0,0,0,3278.8,1811.45Z"/><path d="M3270,1827.57a6.33,6.33,0,0,0,8.12-2.49,5.33,5.33,0,0,0-2.71-7.44,6.33,6.33,0,0,0-8.13,2.48A5.35,5.35,0,0,0,3270,1827.57Z"/><path d="M3261.24,1843.69a6.32,6.32,0,0,0,8.11-2.48,5.35,5.35,0,0,0-2.7-7.46,6.34,6.34,0,0,0-8.13,2.49A5.34,5.34,0,0,0,3261.24,1843.69Z"/><path fill="#fff" d="M3247.63,1827.79l16.94,7.74a3.13,3.13,0,0,1,1.88,2.59,3,3,0,0,1-.35,1.59,3.56,3.56,0,0,1-4.57,1.4l-16.53-7.56C3245.68,1831.82,3246.56,1829.89,3247.63,1827.79Z"/><path fill="#fff" d="M3273.36,1819.41a3.12,3.12,0,0,1,1.87,2.59,2.85,2.85,0,0,1-.35,1.59,3.55,3.55,0,0,1-4.56,1.4l-16.8-7.69c1.06-1.75,2.16-3.56,3.33-5.44Z"/><path fill="#fff" d="M3282.14,1803.29a3.08,3.08,0,0,1,1.88,2.59,2.85,2.85,0,0,1-.35,1.59,3.56,3.56,0,0,1-4.56,1.4l-15.73-7.2c1.14-1.75,2.32-3.54,3.52-5.35Z"/><path fill="#fff" d="M3290.94,1787.16a3.15,3.15,0,0,1,1.87,2.6,3,3,0,0,1-.35,1.59,3.56,3.56,0,0,1-4.57,1.39l-14.3-6.53.53-.8c1-1.51,2-3,3-4.55Z"/><path fill="#fff" d="M3299.71,1771.05a3.1,3.1,0,0,1,1.88,2.59,2.85,2.85,0,0,1-.35,1.59,3.56,3.56,0,0,1-4.57,1.4l-12.86-5.89q1.77-2.68,3.51-5.36Z"/><path fill="#fff" d="M3308.5,1754.93a3.12,3.12,0,0,1,1.88,2.6,3,3,0,0,1-.35,1.58,3.56,3.56,0,0,1-4.57,1.39l-11.64-5.32q1.72-2.75,3.36-5.42Z"/><polygon fill="#f19a6d" points="2229.17 1874.56 2192.84 1871.21 2243.89 1994.67 2282.43 1996.26 2229.17 1874.56"/><polygon fill="#274589" points="3164.86 1794.31 3143.28 1998.83 3194.74 1993.84 3209.68 1804.29 3164.86 1794.31"/><path fill="#274589" d="M3152.82,1719.07v67.34l40.3,11.93s2-57.45-7.93-73Z"/><path fill="#5681bf" d="M1538.09,1917.77l-116.58-3.47s-54.25,80.93-50.78,82.08,167.36-1.15,167.36-1.15Z"/><path d="M1302.66,1779.37s-32.72,230.47,234.76,153.93l3.39-45.93-18.68-5.1,22.08-11.91,3.67-21.18Z"/><path fill="#f5b0a6" d="M1396.76,1704.68s107.28-14,137.11,30,14.26,89.65-5.66,112.07-46.62,28.18-46.62,28.18,2.41,28.59-22.08,32.74c-23.83,4.63-53.58-11.53-31.1-42.05C1356.54,1865.91,1296.05,1732,1396.76,1704.68Z"/><path d="M1396.76,1704.68l-2,23.13-32.24,11.33,31.06,2.64-1.31,15.51-22.23,7.49,20.66,11.12,6.35,49-41.48-3.52,40.3,17.48,2.59,19.25,29.91,7.52-77.65,13.15s-48.62-93.18-48.1-99.39.08-44.45,30.85-67.74S1396.76,1704.68,1396.76,1704.68Z"/><path d="M1445.84,1737a5.65,5.65,0,1,0-5.14-6.11A5.65,5.65,0,0,0,1445.84,1737Z"/><path fill="#fff" d="M1445.16,1819.21c5.9.21,11-8.76,11.4-20s-4.06-20.59-10-20.8-11,8.77-11.4,20.05S1439.26,1819,1445.16,1819.21Z"/><ellipse cx="1445.51" cy="1796.03" rx="9" ry="9.01"/><ellipse cx="1448.51" cy="1732.88" fill="#fff" rx="18.64" ry="10.69" transform="rotate(-88.52 1448.42 1732.869)"/><ellipse cx="1448.23" cy="1728.95" rx="8.22" ry="9" transform="rotate(-85.08 1448.117 1728.94)"/><path d="M1423.58,1785.91c-.92,9.1,1,27.58,4.24,36.32C1422.2,1820.36,1415.73,1797,1423.58,1785.91Z"/><path d="M1426.93,1713.86c-2.07,7.64-3,23.69-1.5,31.6C1420.9,1743.07,1418.66,1722.23,1426.93,1713.86Z"/><path d="M1445.26,1758.26c4.8.19,9.59.37,14.39.46,3.6.06,8.84,1,12.29,0s5.06-5.58,9.41-4c4.53,1.67,2.62,8.2,3.78,11.7.56,1.69,3.44,2,3.79,0,1.22-7-1.62-16.82-10.52-15.29a10.24,10.24,0,0,0-4.49,2c-1.22.93-1.88,2.11-3.47,2.56s-3.81,0-5.39.06c-6.6.06-13.19.24-19.79.5a1,1,0,0,0,0,2Z"/><path fill="#f18a8b" d="M1465.64,1891.63l-8-2.13s1.48-6.41-1.67-8c-1.57-.79-8.56,3.73-14.19,9.92l-6.13-5.57c3.48-3.84,15.51-16,24-11.76C1467.07,1877.81,1466.9,1886.86,1465.64,1891.63Z"/><path d="M1499.2,1777.18c-3.33-8,.69-28.83,1.16-31.18l4.06.81c-1.2,6-3.8,23-1.39,28.78Z"/><path fill="#5681bf" d="M1289.31,1569.79l60.31,5.91s-14.94,334.22,5,399.07l-44.82,29.93S1281.3,1656.17,1289.31,1569.79Z"/></g></svg>